<?xml version="1.0" encoding="iso-8859-1"?>
<!-- Generator: Adobe Illustrator 19.0.0, SVG Export Plug-In . SVG Version: 6.00 Build 0)  -->
<svg version="1.1" id="Capa_1" xmlns="http://www.w3.org/2000/svg" xmlns:xlink="http://www.w3.org/1999/xlink" x="0px" y="0px"
	 viewBox="0 0 512.001 512.001" style="enable-background:new 0 0 512.001 512.001;" xml:space="preserve">
<g>
	<g>
		<path d="M151.579,108.044h-23.557V44.05c0-5.521-4.478-9.999-9.999-9.999c-5.522,0-9.999,4.478-9.999,9.999v73.992
			c0,5.521,4.477,9.999,9.999,9.999h33.556c5.522,0,9.999-4.478,9.999-9.999S157.101,108.044,151.579,108.044z"/>
	</g>
</g>
<g>
	<g>
		<path d="M118.022,181.855c-5.522,0-9.999,4.478-9.999,9.999v6.698c0,5.521,4.477,9.999,9.999,9.999s9.999-4.478,9.999-9.999
			v-6.698C128.021,186.332,123.545,181.855,118.022,181.855z"/>
	</g>
</g>
<g>
	<g>
		<path d="M198.532,108.044h-6.699c-5.522,0-9.999,4.477-9.999,9.999s4.477,9.999,9.999,9.999h6.699
			c5.522,0,9.999-4.478,9.999-9.999S204.054,108.044,198.532,108.044z"/>
	</g>
</g>
<g>
	<g>
		<path d="M44.211,108.044h-6.699c-5.522,0-9.999,4.477-9.999,9.999s4.477,9.999,9.999,9.999h6.699c5.522,0,9.999-4.478,9.999-9.999
			S49.734,108.044,44.211,108.044z"/>
	</g>
</g>
<g>
	<g>
		<path d="M461.055,323.95c-1.86-1.86-4.44-2.93-7.069-2.93c-2.63,0-5.209,1.069-7.069,2.93c-1.86,1.86-2.93,4.44-2.93,7.069
			c0,2.63,1.07,5.209,2.93,7.068c1.86,1.861,4.439,2.931,7.069,2.931c2.63,0,5.209-1.07,7.069-2.931
			c1.86-1.859,2.93-4.438,2.93-7.068C463.985,328.39,462.915,325.81,461.055,323.95z"/>
	</g>
</g>
<g>
	<g>
		<path d="M501.981,198.034h-68.138l18.064-71.544c0.755-2.99,0.088-6.159-1.807-8.592c-1.108-1.422-2.568-2.487-4.202-3.136
			c0.184-0.18,0.369-0.354,0.553-0.538c28.769-28.771,17.894-62.363,17.416-63.779c-1.082-3.211-3.697-5.615-6.897-6.469
			c-6.002-1.743-36.539-8.833-62.973,17.419V44.05c0-5.521-4.477-9.999-9.999-9.999c-5.522,0-9.999,4.478-9.999,9.999v17.355
			c-26.346-26.176-56.776-19.217-62.978-17.431c-3.203,0.853-5.82,3.259-6.902,6.471c-0.477,1.416-11.353,35.008,17.416,63.779
			c0.184,0.184,0.369,0.357,0.553,0.538c-1.634,0.649-3.095,1.714-4.203,3.136c-1.895,2.433-2.562,5.602-1.807,8.592l18.064,71.544
			h-78.137c-5.522,0-9.999,4.478-9.999,9.999v47.995c0,5.521,4.477,9.999,9.999,9.999h187.98v24.497
			c0,5.521,4.477,9.999,9.999,9.999s9.999-4.478,9.999-9.999v-34.496c0-5.521-4.477-9.999-9.999-9.999h-187.98v-27.997h80.974
			h74.025h70.975v273.971H20.031v-27.997h433.953c5.522,0,9.999-4.478,9.999-9.999v-83.991c0-5.521-4.477-9.999-9.999-9.999
			c-5.522,0-9.999,4.478-9.999,9.999v73.992h-50.237c0.156-1.089,0.242-2.201,0.242-3.333V314.932
			c0-12.865-10.466-23.331-23.331-23.331h-37.329c-4.954,0-9.55,1.557-13.332,4.202c-3.783-2.644-8.377-4.202-13.332-4.202h-37.329
			c-12.865,0-23.33,10.467-23.33,23.331v17.33c-1.089-0.156-2.201-0.242-3.333-0.242h-37.329c-4.865,0-9.385,1.499-13.129,4.056
			c-3.743-2.557-8.263-4.056-13.129-4.056h-37.329c-12.865,0-23.331,10.466-23.331,23.331v85.325c0,1.132,0.085,2.244,0.242,3.333
			H10.034c-5.522,0-9.999,4.477-9.999,9.999v47.995c0,5.521,4.477,9.999,9.999,9.999h491.947c5.522,0,9.999-4.478,9.999-9.999
			V208.034C511.98,202.511,507.503,198.034,501.981,198.034z M456.924,43.964c-0.29-0.076-0.585-0.139-0.884-0.188
			C456.424,43.839,456.732,43.912,456.924,43.964z M322.012,62.093c8.34-1.063,23.858-0.542,38.027,13.628
			c10.785,10.784,13.642,22.394,13.964,30.872c-0.026,1.123-0.023,2.21,0.004,3.258c-0.051,1.441-0.165,2.753-0.309,3.899
			c-1.034,0.131-2.203,0.238-3.479,0.295h-3.965c-8.445-0.375-19.909-3.29-30.58-13.959
			C321.398,85.806,321.014,70.081,322.012,62.093z M413.217,198.034h-58.448l-16.157-63.993h28.828
			c0.215,0.002,0.432,0.006,0.644,0.006c0.146,0,0.284-0.005,0.428-0.006h30.963c0.144,0.001,0.283,0.006,0.428,0.006
			c0.212,0,0.429-0.004,0.644-0.006h28.828L413.217,198.034z M401.559,114.043h-3.584c-1.36-0.054-2.603-0.164-3.695-0.302
			c-0.141-1.112-0.252-2.379-0.305-3.769c0.032-1.13,0.034-2.308,0.003-3.526c0.349-8.458,3.236-19.996,13.966-30.727
			c14.17-14.167,29.683-14.698,38.023-13.628c1.004,8.022,0.604,23.728-13.658,37.991
			C421.578,110.815,410.026,113.698,401.559,114.043z M330,314.932c0-1.838,1.495-3.334,3.333-3.334h37.329
			c1.838,0,3.333,1.496,3.333,3.334v125.743c0,1.838-1.496,3.333-3.333,3.333h-37.329c-1.838,0-3.333-1.495-3.333-3.333V314.932z
			 M266.006,355.351v-40.419c0-1.838,1.496-3.334,3.333-3.334h37.329c1.838,0,3.333,1.496,3.333,3.334v125.743
			c0,1.838-1.496,3.333-3.333,3.333h-37.329c-1.838,0-3.333-1.495-3.333-3.333V355.351z M202.369,353.88
			c0.546-1.098,1.669-1.863,2.977-1.863h37.329c1.838,0,3.333,1.495,3.333,3.333v85.325c0,1.838-1.496,3.333-3.333,3.333h-37.329
			c-1.308,0-2.431-0.764-2.977-1.863c0.03-0.486,0.051-0.976,0.051-1.47V355.35C202.42,354.856,202.399,354.367,202.369,353.88z
			 M138.427,355.35c0-1.838,1.495-3.333,3.333-3.333h37.329c1.308,0,2.431,0.764,2.977,1.863c-0.03,0.486-0.051,0.976-0.051,1.47
			v85.325c0,0.494,0.021,0.983,0.051,1.47c-0.546,1.099-1.669,1.863-2.977,1.863H141.76c-1.838,0-3.333-1.495-3.333-3.333V355.35z"
			/>
	</g>
</g>
<g>
	<g>
		<path d="M201.452,34.613C170.086,3.248,124.333-7.851,82.045,5.651c-5.26,1.68-8.164,7.306-6.484,12.566
			c1.68,5.261,7.307,8.161,12.567,6.484c35.125-11.215,73.132-1.999,99.183,24.053c38.206,38.206,38.206,100.371,0,138.577
			c-38.206,38.207-100.372,38.207-138.578,0C23.302,161.9,13.852,124.657,24.068,90.134c1.567-5.295-1.455-10.858-6.75-12.426
			c-5.289-1.567-10.857,1.456-12.425,6.751c-12.3,41.558-0.92,86.394,29.699,117.012c23.002,23.002,53.215,34.502,83.43,34.502
			c30.214,0,60.428-11.501,83.43-34.502C247.454,155.469,247.454,80.616,201.452,34.613z"/>
	</g>
</g>
<g>
	<g>
		<path d="M49.502,33.968C45.63,30.03,39.3,29.978,35.361,33.85c-0.259,0.256-0.518,0.512-0.776,0.771
			c-3.901,3.909-3.895,10.239,0.015,14.14c1.951,1.949,4.507,2.922,7.062,2.922c2.563,0,5.124-0.979,7.078-2.937l0.644-0.638
			C53.322,44.235,53.374,37.905,49.502,33.968z"/>
	</g>
</g>
<g>
	<g>
		<path d="M391.072,2.985c-1.87-1.86-4.44-2.93-7.069-2.93c-2.64,0-5.209,1.069-7.079,2.93c-1.86,1.86-2.92,4.44-2.92,7.069
			c0,2.63,1.06,5.209,2.92,7.068c1.87,1.861,4.44,2.931,7.079,2.931c2.63,0,5.199-1.07,7.069-2.931
			c1.86-1.859,2.93-4.438,2.93-7.068C394.002,7.424,392.932,4.845,391.072,2.985z"/>
	</g>
</g>
<g>
</g>
<g>
</g>
<g>
</g>
<g>
</g>
<g>
</g>
<g>
</g>
<g>
</g>
<g>
</g>
<g>
</g>
<g>
</g>
<g>
</g>
<g>
</g>
<g>
</g>
<g>
</g>
<g>
</g>
</svg>
