<?xml version="1.0" encoding="iso-8859-1"?>
<!-- Generator: Adobe Illustrator 19.0.0, SVG Export Plug-In . SVG Version: 6.00 Build 0)  -->
<svg version="1.1" id="Capa_1" xmlns="http://www.w3.org/2000/svg" xmlns:xlink="http://www.w3.org/1999/xlink" x="0px" y="0px"
	 viewBox="0 0 512.004 512.004" style="enable-background:new 0 0 512.004 512.004;" xml:space="preserve">
<g>
	<g>
		<g>
			<path d="M499.65,151.064h-38.123V28.325c0-6.795-5.542-12.323-12.354-12.323h-29.121c-1.723,0-3.363,0.356-4.854,0.994
				c-1.491-0.638-3.132-0.994-4.854-0.994h-29.121c-6.812,0-12.354,5.528-12.354,12.323v84.15H255.031
				c-6.812,0-12.354,5.528-12.354,12.324v26.266H170.51c5.937-7.141,9.51-16.296,9.51-26.266c0-18.176-12.135-34.095-29.121-39.391
				V59.944h2.207c4.143,0,7.5-3.357,7.5-7.5s-3.357-7.5-7.5-7.5h-48.535c-4.143,0-7.5,3.357-7.5,7.5s3.357,7.5,7.5,7.5h2.207v25.464
				c-16.986,5.296-29.121,21.215-29.121,39.391c0,9.97,3.572,19.125,9.51,26.266H12.354C5.542,151.065,0,156.593,0,163.388v106.12
				c0,1.711,0.353,3.341,0.988,4.824C0.353,275.814,0,277.444,0,279.155v106.121c0,6.795,5.542,12.324,12.352,12.323h78.99
				l-18.781,83.375c-0.826,3.665,0.047,7.452,2.396,10.389c2.356,2.949,5.877,4.639,9.656,4.639h29.399
				c5.124,0,9.773-3.216,11.569-8.002l33.941-90.4h192.956l33.94,90.399c1.796,4.787,6.445,8.003,11.569,8.003h29.398
				c3.779,0,7.3-1.691,9.656-4.639c2.349-2.937,3.222-6.724,2.396-10.388l-18.781-83.376h78.99c6.812,0,12.354-5.528,12.354-12.323
				V279.155c0-1.71-0.353-3.341-0.988-4.823c0.635-1.482,0.988-3.113,0.988-4.824h0.004V163.387
				C512.004,156.592,506.462,151.064,499.65,151.064z M115.334,98.808c3.697-0.527,6.444-3.692,6.444-7.426V59.944h14.121v31.438
				c0,3.735,2.747,6.9,6.444,7.426c12.928,1.838,22.677,13.012,22.677,25.991c0,14.484-11.876,26.266-26.475,26.266h-19.414
				c-14.599,0-26.475-11.783-26.474-26.266C92.657,111.82,102.406,100.646,115.334,98.808z M112.187,481.002H87.932l18.787-83.402
				H143.5L112.187,481.002z M248.5,382.6H15V281.832h233.5V382.6z M248.5,266.832H15V166.065h233.5V266.832z M422.695,31.002h23.828
				v120.063h-23.828V31.002z M383.867,31.002h23.828v120.063h-14.121v-26.266c0-5.889-4.164-10.819-9.707-12.032V31.002z
				 M424.068,481.002h-24.255L368.5,397.6h36.781L424.068,481.002z M497,382.6H263.5V281.832H497V382.6z M497,266.832H263.5V166.065
				h64.655c4.143,0,7.5-3.357,7.5-7.5s-3.357-7.5-7.5-7.5h-70.479v-23.59h120.899v23.59h-23.563c-4.143,0-7.5,3.357-7.5,7.5
				s3.357,7.5,7.5,7.5H497V266.832z"/>
			<path d="M112.192,320.421h46.019c4.143,0,7.5-3.357,7.5-7.5s-3.357-7.5-7.5-7.5h-46.019c-4.143,0-7.5,3.357-7.5,7.5
				S108.049,320.421,112.192,320.421z"/>
			<path d="M346.289,197.153c0,4.143,3.357,7.5,7.5,7.5h46.019c4.143,0,7.5-3.357,7.5-7.5s-3.357-7.5-7.5-7.5h-46.019
				C349.646,189.653,346.289,193.01,346.289,197.153z"/>
			<path d="M353.789,320.421h46.019c4.143,0,7.5-3.357,7.5-7.5s-3.358-7.5-7.5-7.5h-46.019c-4.143,0-7.5,3.357-7.5,7.5
				S349.646,320.421,353.789,320.421z"/>
			<path d="M112.192,204.653h46.019c4.143,0,7.5-3.357,7.5-7.5s-3.357-7.5-7.5-7.5h-46.019c-4.143,0-7.5,3.357-7.5,7.5
				S108.049,204.653,112.192,204.653z"/>
		</g>
	</g>
</g>
<g>
</g>
<g>
</g>
<g>
</g>
<g>
</g>
<g>
</g>
<g>
</g>
<g>
</g>
<g>
</g>
<g>
</g>
<g>
</g>
<g>
</g>
<g>
</g>
<g>
</g>
<g>
</g>
<g>
</g>
</svg>
