<?xml version="1.0" encoding="iso-8859-1"?>
<!-- Generator: Adobe Illustrator 19.0.0, SVG Export Plug-In . SVG Version: 6.00 Build 0)  -->
<svg version="1.1" id="Capa_1" xmlns="http://www.w3.org/2000/svg" xmlns:xlink="http://www.w3.org/1999/xlink" x="0px" y="0px"
	 viewBox="0 0 512 512" style="enable-background:new 0 0 512 512;" xml:space="preserve">
<g>
	<g>
		<path d="M511.468,448.845l-43.919-170.679h8.793c8.501,0,15.418-6.917,15.418-15.418v-15.624c0-8.502-6.917-15.418-15.418-15.418
			h-24.136v-27.191c0-7.57-5.665-13.827-12.974-14.793l4.12-32.102c0.48-3.739-0.673-7.507-3.164-10.337
			c-0.182-0.207-0.382-0.393-0.575-0.587l10.976-13.882c2.569-3.249,2.018-7.966-1.231-10.535
			c-3.249-2.569-7.965-2.018-10.535,1.231l-11.555,14.615l4.807-22.913c0.85-4.054-1.747-8.029-5.801-8.88
			c-4.045-0.849-8.029,1.747-8.88,5.801l-3.521,16.785V82.486c0-4.142-3.358-7.5-7.5-7.5c-4.142,0-7.5,3.358-7.5,7.5v46.295
			l-3.369-9.781c-1.349-3.917-5.617-5.996-9.534-4.649c-3.917,1.349-5.998,5.617-4.649,9.534l6.983,20.275
			c-1.549,0.753-2.958,1.798-4.121,3.12c-2.49,2.83-3.644,6.598-3.164,10.337l4.102,31.958h-10.249v-46.362
			c0-6.738-5.481-12.219-12.219-12.219h-33.501c-6.738,0-12.22,5.481-12.22,12.219v46.362h-2.115
			c-8.236,0-14.937,6.701-14.937,14.937v27.193h-98.185c-0.84-3.561-3.271-6.663-6.666-8.299c-2.864-1.381-4.997-3.734-6.595-6.412
			h65.394c10.194,0,18.488-8.294,18.488-18.488v-79.333c0-4.142-3.358-7.5-7.5-7.5c-4.142,0-7.5,3.358-7.5,7.5v56.403H54.542V57.185
			h202.773v28.307c0,4.142,3.358,7.5,7.5,7.5c4.142,0,7.5-3.358,7.5-7.5V57.08c0-8.213-6.682-14.895-14.894-14.895H54.436
			c-8.212,0-14.894,6.682-14.894,14.895v141.424c0,10.194,8.294,18.488,18.488,18.488h66.973c-1.596,2.675-3.731,5.026-6.601,6.41
			c-3.398,1.637-5.829,4.739-6.669,8.3H35.658c-8.501,0-15.418,6.917-15.418,15.418v15.624c0,8.502,6.917,15.418,15.418,15.418
			h8.793L0.532,448.844c-2.307,8.961,3.103,18.131,12.073,20.446c1.385,0.354,2.779,0.525,4.155,0.525
			c6.745,0,13.046-4.092,15.621-10.602c0.016-0.041,0.032-0.082,0.047-0.122l67.923-180.925h41.807c4.142,0,7.5-3.358,7.5-7.5
			c0-4.142-3.358-7.5-7.5-7.5H35.658c-0.23,0-0.418-0.188-0.418-0.418v-15.624c0-0.231,0.188-0.418,0.418-0.418h440.685
			c0.23,0,0.418,0.188,0.418,0.418v15.624c0,0.231-0.188,0.418-0.418,0.418h-59.191c-0.019-0.001-0.037,0.001-0.056,0H175.838
			c-4.142,0-7.5,3.358-7.5,7.5c0,4.142,3.358,7.5,7.5,7.5h235.81l9.303,24.781c1.13,3.01,3.987,4.866,7.022,4.866
			c0.876,0,1.767-0.154,2.635-0.48c3.878-1.456,5.842-5.779,4.386-9.657l-7.324-19.51h24.389l44.881,174.419
			c0.246,0.955-0.329,1.932-1.268,2.174c-0.858,0.22-1.75-0.219-2.09-1.025l-46.728-124.478c-1.456-3.878-5.78-5.843-9.657-4.386
			c-3.878,1.456-5.842,5.779-4.386,9.657l46.761,124.562c0.015,0.041,0.031,0.082,0.047,0.123c2.574,6.509,8.872,10.601,15.623,10.6
			c1.378,0,2.776-0.171,4.165-0.526C508.365,466.975,513.775,457.805,511.468,448.845z M84.329,278.165L18.416,453.732
			c-0.339,0.806-1.229,1.246-2.077,1.03c-0.952-0.246-1.527-1.223-1.281-2.179l44.881-174.418H84.329z M58.03,201.993
			c-1.923,0-3.488-1.565-3.488-3.488v-7.93h202.773v7.93c0,1.923-1.565,3.488-3.488,3.488h-76.448c-0.011,0-0.023,0-0.034,0h-41.256
			c-0.038-0.001-0.076,0.001-0.114,0H58.03z M132.37,231.703c4.441-4.274,7.279-9.625,9.088-14.71h30.507
			c2.143,6.02,5.214,10.967,9.102,14.71H132.37z M428.202,157.827l-4.075,31.748h-23.883l-4.074-31.748H428.202z M331.931,145.994
			h27.94v43.582h-27.94V145.994z M437.206,231.704h-122.34l-0.05-27.13l9.518-0.005c0.033,0,0.064,0.005,0.097,0.005h42.94
			c0.183,0,0.362-0.014,0.542-0.027l24.976-0.013c0.249,0.025,0.501,0.04,0.756,0.04h37.081c0.304,0,0.603-0.025,0.899-0.06
			l5.581-0.003V231.704z"/>
	</g>
</g>
<g>
</g>
<g>
</g>
<g>
</g>
<g>
</g>
<g>
</g>
<g>
</g>
<g>
</g>
<g>
</g>
<g>
</g>
<g>
</g>
<g>
</g>
<g>
</g>
<g>
</g>
<g>
</g>
<g>
</g>
</svg>
