<?xml version="1.0" encoding="iso-8859-1"?>
<!-- Generator: Adobe Illustrator 18.0.0, SVG Export Plug-In . SVG Version: 6.00 Build 0)  -->
<!DOCTYPE svg PUBLIC "-//W3C//DTD SVG 1.1//EN" "http://www.w3.org/Graphics/SVG/1.1/DTD/svg11.dtd">
<svg version="1.1" id="Capa_1" xmlns="http://www.w3.org/2000/svg" xmlns:xlink="http://www.w3.org/1999/xlink" x="0px" y="0px"
	 viewBox="0 0 440.354 440.354" style="enable-background:new 0 0 440.354 440.354;" xml:space="preserve">
<g>
	<path d="M24.551,125.432c14.805,8.656,36.254,13.231,62.031,13.231c36.427,0,76.772,11.383,79.275,36.374
		c1.744,17.417-17.946,33.34-48.997,39.622c-2.977,0.603-4.902,3.504-4.3,6.481c0.528,2.609,2.822,4.41,5.385,4.41
		c0.361,0,0.729-0.036,1.097-0.11c18.553-3.754,33.76-10.657,43.976-19.965c10.012-9.121,14.907-20.32,13.784-31.535
		c-1.297-12.956-10.361-24.64-25.522-32.902c-16.058-8.751-38.431-13.376-64.698-13.376c-23.827,0-43.357-4.055-56.479-11.727
		c-10.558-6.173-16.372-14.457-16.372-23.325c0-26.257,41.108-41.948,80.851-41.948c3.038,0,5.5-2.462,5.5-5.5s-2.462-5.5-5.5-5.5
		c-26.895,0-50.051,5.491-66.968,15.879C11.801,65.253,2.732,78.764,2.732,92.61C2.732,105.549,10.481,117.205,24.551,125.432z"/>
	<path d="M63.792,231.558c2.737-0.517,5.589-0.975,8.476-1.36c3.011-0.402,5.125-3.169,4.723-6.18
		c-0.402-3.011-3.171-5.126-6.18-4.723c-3.081,0.412-6.129,0.901-9.06,1.454c-2.985,0.564-4.948,3.44-4.384,6.425
		c0.499,2.64,2.806,4.48,5.398,4.48C63.103,231.654,63.447,231.623,63.792,231.558z"/>
	<path d="M73.797,324.606c11.302,1.631,22.133,2.445,32.479,2.445c26.462,0,49.729-5.328,69.442-15.936
		c2.675-1.439,3.676-4.775,2.237-7.449c-1.44-2.675-4.774-3.676-7.45-2.237c-25.3,13.615-57.308,17.75-95.136,12.29
		c-27.624-3.987-61-16.826-64.152-39.888c-1.828-13.369,8.507-26.384,27.645-34.817c2.78-1.225,4.04-4.471,2.815-7.251
		c-1.225-2.78-4.472-4.041-7.251-2.815c-23.888,10.526-36.638,27.862-34.108,46.373C3.644,299.66,31.8,318.545,73.797,324.606z"/>
	<path d="M69.21,286.245c4.614,2.157,10.523,3.294,17.046,3.293c19.262-0.001,43.863-9.916,56.168-32.769
		c1.44-2.675,0.439-6.01-2.235-7.45c-2.674-1.44-6.01-0.439-7.45,2.235c-13.722,25.484-46.376,30.566-58.872,24.725
		c-4.389-2.051-3.631-3.944-3.179-5.075c1.036-2.59,4.229-4.972,9.234-6.889c2.837-1.086,4.256-4.267,3.169-7.103
		c-1.086-2.836-4.268-4.256-7.103-3.169c-8.058,3.086-13.278,7.485-15.514,13.076C57.349,274.937,60.696,282.266,69.21,286.245z"/>
	<path d="M92.773,260.983c0.283,0,0.57-0.022,0.858-0.067c3.674-0.576,7.756-1.021,12.131-1.324
		c3.031-0.209,5.317-2.836,5.108-5.866c-0.209-3.03-2.824-5.32-5.866-5.108c-4.691,0.324-9.09,0.805-13.077,1.43
		c-3.001,0.47-5.053,3.284-4.582,6.285C87.771,259.047,90.111,260.983,92.773,260.983z"/>
	<path d="M434.916,302.827c-2.944-0.736-5.933,1.054-6.67,4.002c-1.923,7.692-5.186,15.294-9.698,22.593
		c-1.597,2.584-0.797,5.973,1.786,7.57c0.901,0.557,1.9,0.823,2.887,0.823c1.843,0,3.644-0.926,4.684-2.609
		c5.109-8.265,8.815-16.915,11.014-25.709C439.655,306.55,437.863,303.564,434.916,302.827z"/>
	<path d="M409.07,342.267c-17.358,20.093-44.594,36.806-74.725,45.852c-29.498,8.855-57.416,9.216-76.594,0.989
		c-15.354-6.586-17.321-11.683-17.455-13.569c-0.227-3.198,3.674-7.485,10.703-11.762c2.595-1.579,3.418-4.963,1.839-7.558
		c-1.579-2.595-4.96-3.418-7.558-1.839c-11.139,6.779-16.507,14.159-15.957,21.936c0.618,8.72,8.498,16.211,24.091,22.9
		c10.791,4.629,23.513,6.79,37.174,6.789c43.789-0.003,97.147-22.216,126.806-56.548c1.986-2.299,1.732-5.772-0.566-7.758
		C414.527,339.715,411.056,339.969,409.07,342.267z"/>
	<path d="M286.466,336.488c-2.703,1.224-5.413,2.41-8.056,3.525c-2.799,1.181-4.11,4.407-2.93,7.205
		c0.886,2.101,2.924,3.364,5.07,3.364c0.713,0,1.438-0.139,2.135-0.434c2.73-1.152,5.529-2.376,8.319-3.64
		c2.767-1.253,3.994-4.512,2.741-7.279S289.237,335.236,286.466,336.488z"/>
	<path d="M381.879,100.965l13.23-14.021c9.338,4.481,17.835,9.417,25.291,14.705c0.966,0.685,2.077,1.014,3.177,1.014
		c1.723,0,3.419-0.807,4.491-2.319c1.757-2.478,1.173-5.911-1.305-7.668c-7.109-5.042-15.083-9.766-23.755-14.104l23.65-25.062
		c4.244-4.497,4.143-11.445-0.229-15.816c-4.372-4.372-11.319-4.473-15.816-0.229L378.3,67.958
		c-63.498-23.472-143.423-27.066-186.198-27.066c-0.173,0-0.351,0-0.523,0c-3.038,0.002-5.498,2.466-5.496,5.504
		c0.002,3.037,2.464,5.496,5.5,5.496c0.001,0,0.002,0,0.004,0c40.727-0.046,116.456,3.221,177.742,24.532l-14.587,13.765
		c-26.139-8.722-80.18-22.634-165.961-26.032c-3.03-0.116-5.593,2.243-5.713,5.278c-0.12,3.035,2.243,5.593,5.278,5.713
		c78.679,3.117,129.976,15.137,157.268,23.655l-40.194,37.929c-40.525-18.09-99.611-23.815-147.354-28.437
		c-35.177-3.406-71.551-6.927-77.638-14.467c-0.438-0.542-0.407-0.801-0.38-1.03c1.457-12.53,26.667-19.678,67.441-19.116
		c3.028,0.014,5.533-2.386,5.575-5.424c0.042-3.037-2.387-5.533-5.424-5.575c-34.23-0.471-75.647,4.152-78.519,28.844
		c-0.387,3.321,0.563,6.506,2.748,9.211c8.571,10.616,36.504,13.797,85.137,18.506c45.274,4.383,100.933,9.773,139.697,25.714
		l-25.926,24.465c-10.46-6.919-23.746-13.032-39.588-18.199c-2.888-0.942-5.992,0.636-6.935,3.523
		c-0.942,2.888,0.636,5.993,3.523,6.935c13.815,4.506,25.467,9.713,34.758,15.518l-27.873,26.302l-5.894,1.346
		c-18.289,4.177-30.186,21.347-27.674,39.938c1.585,11.731-5.376,23.075-16.553,26.974l-6.876,2.399
		c-2.288,0.798-3.784,3-3.684,5.421c0.1,2.421,1.773,4.491,4.119,5.098c0.542,0.14,7.032,1.762,16.276,1.762
		c9.898,0,22.953-1.861,35.231-9.393c15.392-9.443,25.804-25.45,30.993-47.559l25.204-26.709
		c3.771,11.62-0.039,24.445-11.534,38.972c-1.885,2.382-1.482,5.841,0.9,7.726c1.01,0.799,2.214,1.187,3.41,1.187
		c1.623,0,3.231-0.716,4.316-2.087c15.567-19.672,19.318-38.012,11.199-54.583l30.872-32.716
		c21.738,18.343,24.567,43.42,8.659,76.503c-1.316,2.738-0.165,6.024,2.573,7.34c0.769,0.37,1.58,0.544,2.379,0.544
		c2.048,0,4.014-1.149,4.96-3.118c18.087-37.615,14.37-67.618-11.007-89.287l41.391-43.863
		c39.762,17.855,57.823,42.191,55.178,74.315c-2.965,36.009-18.697,66.743-48.093,93.959
		c-25.757,23.847-56.876,39.914-77.469,50.545c-2.699,1.394-3.758,4.711-2.364,7.41c0.977,1.892,2.899,2.978,4.892,2.978
		c0.85,0,1.712-0.198,2.519-0.614c43.379-22.396,124.125-64.083,131.479-153.376C443.015,148.77,423.437,120.661,381.879,100.965z
		 M418.163,45.466c0.14-0.132,0.354-0.128,0.489,0.007c0.135,0.135,0.138,0.349,0.007,0.488L268.598,204.984l-9.457-9.457
		L418.163,45.466z M251.137,203.079l9.908,9.908l-5.564,5.897l-10.241-10.24L251.137,203.079z M223.949,267.61
		c-7.966,4.913-16.501,6.91-23.857,7.543c8.801-7.789,13.547-19.671,11.903-31.841c-1.746-12.913,6.518-24.839,19.222-27.741
		l4.391-1.003l13.922,13.922C244.946,246.801,236.355,259.961,223.949,267.61z"/>
	<path d="M324.187,271.768c2.509-2.893,4.9-5.885,7.108-8.893c1.797-2.449,1.27-5.891-1.179-7.688
		c-2.447-1.797-5.891-1.27-7.688,1.179c-2.033,2.769-4.237,5.526-6.551,8.194c-1.99,2.295-1.744,5.768,0.551,7.759
		c1.041,0.903,2.324,1.345,3.601,1.345C321.569,273.665,323.099,273.022,324.187,271.768z"/>
	<path d="M310.375,278.4c-2.019-2.27-5.494-2.473-7.765-0.455c-46.471,41.329-123.165,59.995-179.32,68.376
		c-61.282,9.146-112.104,8.35-112.608,8.342c-3.048-0.059-5.543,2.363-5.599,5.4c-0.055,3.037,2.362,5.543,5.399,5.598
		c0.079,0.001,1.368,0.022,3.722,0.022c12.93,0,57.951-0.622,110.535-8.457c83.916-12.503,146.22-36.412,185.182-71.062
		C312.19,284.146,312.394,280.67,310.375,278.4z"/>
	<path d="M209.088,156.411c0.43,0.103,0.86,0.152,1.284,0.152c2.486,0,4.741-1.698,5.345-4.222c0.707-2.954-1.115-5.922-4.07-6.629
		c-5.517-1.32-8.951-1.938-9.094-1.964c-2.992-0.537-5.846,1.454-6.382,4.443c-0.537,2.989,1.453,5.847,4.441,6.385
		C200.643,154.582,203.908,155.172,209.088,156.411z"/>
	<path d="M366.196,251.497c1.006,0.785,2.198,1.166,3.382,1.166c1.635,0,3.253-0.726,4.338-2.114
		c15.027-19.234,31.255-48.434,23.228-78.313c-0.788-2.933-3.807-4.672-6.738-3.885c-2.934,0.788-4.673,3.805-3.885,6.739
		c5.422,20.182-1.934,43.934-21.272,68.687C363.378,246.17,363.802,249.627,366.196,251.497z"/>
	<path d="M379.976,160.551c1.058,1.601,2.809,2.469,4.594,2.469c1.041,0,2.093-0.295,3.026-0.911
		c2.535-1.674,3.232-5.086,1.558-7.621c-4.421-6.693-8.635-10.212-9.101-10.591c-2.347-1.912-5.789-1.557-7.711,0.782
		s-1.583,5.8,0.748,7.733C373.124,152.44,376.471,155.244,379.976,160.551z"/>
	<path d="M159.577,52.663c0.114,0,0.229-0.004,0.344-0.011c0.039-0.002,3.965-0.242,10.785-0.45c3.036-0.093,5.422-2.629,5.33-5.665
		s-2.625-5.425-5.666-5.33c-7.011,0.214-10.962,0.456-11.127,0.466c-3.032,0.187-5.337,2.797-5.15,5.828
		C154.273,50.418,156.695,52.663,159.577,52.663z"/>
</g>
<g>
</g>
<g>
</g>
<g>
</g>
<g>
</g>
<g>
</g>
<g>
</g>
<g>
</g>
<g>
</g>
<g>
</g>
<g>
</g>
<g>
</g>
<g>
</g>
<g>
</g>
<g>
</g>
<g>
</g>
</svg>
