<?xml version="1.0" encoding="iso-8859-1"?>
<!-- Generator: Adobe Illustrator 18.0.0, SVG Export Plug-In . SVG Version: 6.00 Build 0)  -->
<!DOCTYPE svg PUBLIC "-//W3C//DTD SVG 1.1//EN" "http://www.w3.org/Graphics/SVG/1.1/DTD/svg11.dtd">
<svg version="1.1" id="Capa_1" xmlns="http://www.w3.org/2000/svg" xmlns:xlink="http://www.w3.org/1999/xlink" x="0px" y="0px"
	 viewBox="0 0 456 456" style="enable-background:new 0 0 456 456;" xml:space="preserve">
<g>
	<path d="M197.641,203.811h77.785c3.313,0,6-2.687,6-6V101.25c0-3.313-2.687-6-6-6h-77.785c-3.313,0-6,2.687-6,6v96.561
		C191.641,201.125,194.327,203.811,197.641,203.811z M269.426,191.811h-26.893V107.25h26.893V191.811z M203.641,107.25h26.893
		v84.561h-26.893V107.25z"/>
	<path d="M197.641,341.816h77.785c3.313,0,6-2.687,6-6V232.55c0-3.313-2.687-6-6-6h-77.785c-3.313,0-6,2.687-6,6v103.267
		C191.641,339.13,194.327,341.816,197.641,341.816z M269.426,329.816h-26.893V238.55h26.893V329.816z M203.641,238.55h26.893v91.267
		h-26.893V238.55z"/>
	<path d="M152.333,185.683c-1.93-1.05-4.279-0.963-6.124,0.228L28.384,261.972c-1.712,1.105-2.746,3.003-2.746,5.041v38.436
		c0,3.313,2.687,6,6,6h117.825c3.313,0,6-2.687,6-6V190.952C155.462,188.755,154.262,186.734,152.333,185.683z M37.638,270.281
		l46.913-30.284v59.452H37.638V270.281z M143.462,299.449H96.55V232.25l46.912-30.284V299.449z"/>
	<path d="M450,207.381h-34.839v-78.905c0-3.313-2.687-6-6-6h-105V75.071c0-3.313-2.687-6-6-6H174.905c-3.313,0-6,2.687-6,6v65.732
		L2.746,248.065C1.034,249.17,0,251.069,0,253.106v127.82c0,3.313,2.687,6,6,6l444,0.002c3.313,0,6-2.687,6-6V213.381
		C456,210.068,453.313,207.381,450,207.381z M12,256.375l156.905-101.289v219.841H12V256.375z M292.161,374.927H180.905V81.071
		h111.255V374.927z M403.161,134.477v72.905h-15.227v-47.489c0-3.313-2.687-6-6-6h-63.877c-3.313,0-6,2.687-6,6v47.489h-7.896
		v-72.905H403.161z M375.934,207.381h-51.877v-41.489h51.877V207.381z M422.533,374.929h-96.906V292.6h96.906V374.929z M444,374.929
		h-9.467V286.6c0-3.313-2.687-6-6-6H319.627c-3.313,0-6,2.687-6,6v88.329h-9.467V219.381H444V374.929z"/>
	<path d="M319.627,269.562h108.906c3.313,0,6-2.686,6-6V238.43c0-3.314-2.687-6-6-6H319.627c-3.313,0-6,2.686-6,6v25.132
		C313.627,266.875,316.314,269.562,319.627,269.562z M325.627,244.43h96.906v13.132h-96.906V244.43z"/>
</g>
<g>
</g>
<g>
</g>
<g>
</g>
<g>
</g>
<g>
</g>
<g>
</g>
<g>
</g>
<g>
</g>
<g>
</g>
<g>
</g>
<g>
</g>
<g>
</g>
<g>
</g>
<g>
</g>
<g>
</g>
</svg>
