<?xml version="1.0" encoding="iso-8859-1"?>
<!-- Generator: Adobe Illustrator 19.0.0, SVG Export Plug-In . SVG Version: 6.00 Build 0)  -->
<svg version="1.1" id="Capa_1" xmlns="http://www.w3.org/2000/svg" xmlns:xlink="http://www.w3.org/1999/xlink" x="0px" y="0px"
	 viewBox="0 0 512 512" style="enable-background:new 0 0 512 512;" xml:space="preserve">
<g>
	<g>
		<path d="M512,76.8V25.6C511.985,11.468,500.532,0.015,486.4,0h-76.8c-10.813,0.033-20.435,6.868-24.027,17.067h-37.279
			C344.702,6.868,335.08,0.033,324.267,0H25.6C11.468,0.015,0.015,11.468,0,25.6v51.2c0.033,10.813,6.868,20.435,17.067,24.027
			v37.279C6.868,141.698,0.033,151.32,0,162.133v51.2c0.033,10.813,6.868,20.435,17.067,24.027v37.279
			C6.868,278.232,0.033,287.854,0,298.667v51.2c0.033,10.813,6.868,20.435,17.067,24.027v37.279
			C6.868,414.765,0.033,424.387,0,435.2v51.2c0.015,14.132,11.468,25.585,25.6,25.6h76.8c10.813-0.033,20.435-6.868,24.027-17.067
			h37.279c3.592,10.199,13.214,17.034,24.027,17.067H486.4c14.132-0.015,25.585-11.468,25.6-25.6v-51.2
			c-0.033-10.813-6.868-20.435-17.067-24.028v-37.278c10.199-3.593,17.033-13.215,17.067-24.028v-51.2
			c-0.033-10.813-6.868-20.435-17.067-24.028v-37.278c10.199-3.592,17.033-13.214,17.067-24.028v-51.2
			c-0.033-10.813-6.868-20.435-17.067-24.028v-37.278C505.132,97.235,511.967,87.613,512,76.8z M17.067,25.6
			c0.005-4.711,3.822-8.529,8.533-8.533h298.667c4.711,0.005,8.529,3.822,8.533,8.533v51.2c-0.005,4.711-3.822,8.529-8.533,8.533
			H25.6c-4.711-0.005-8.529-3.822-8.533-8.533V25.6z M17.067,162.133c0.005-4.711,3.822-8.529,8.533-8.533h76.8
			c4.711,0.005,8.529,3.822,8.533,8.533v51.2c-0.005,4.711-3.822,8.529-8.533,8.533H25.6c-4.711-0.005-8.529-3.823-8.533-8.533
			V162.133z M17.067,298.667c0.005-4.711,3.822-8.529,8.533-8.533h298.667c4.711,0.005,8.529,3.822,8.533,8.533v51.2
			c-0.005,4.711-3.822,8.529-8.533,8.533H25.6c-4.711-0.005-8.529-3.822-8.533-8.533V298.667z M110.933,486.4
			c-0.005,4.711-3.822,8.529-8.533,8.533H25.6c-4.711-0.005-8.529-3.822-8.533-8.533v-51.2c0.005-4.711,3.822-8.529,8.533-8.533
			h76.8c4.711,0.005,8.529,3.822,8.533,8.533V486.4z M162.133,435.2v42.667H128V435.2c-0.015-14.132-11.468-25.585-25.6-25.6H34.133
			v-34.133h290.133c14.132-0.015,25.585-11.468,25.6-25.6v-51.2c-0.015-14.132-11.468-25.585-25.6-25.6H34.133v-34.133H102.4
			c14.132-0.015,25.585-11.468,25.6-25.6v-51.2c-0.015-14.132-11.468-25.585-25.6-25.6H34.133V102.4h290.133
			c14.132-0.015,25.585-11.468,25.6-25.6V34.133H384V76.8c0.015,14.132,11.468,25.585,25.6,25.6h68.267v34.133H187.733
			c-14.132,0.015-25.585,11.468-25.6,25.6v51.2c0.015,14.132,11.468,25.585,25.6,25.6h290.133v34.133H409.6
			c-14.132,0.015-25.585,11.468-25.6,25.6v51.2c0.015,14.132,11.468,25.585,25.6,25.6h68.267V409.6H187.733
			C173.601,409.615,162.149,421.068,162.133,435.2z M494.933,486.4c-0.005,4.711-3.822,8.529-8.533,8.533H187.733
			c-4.711-0.005-8.529-3.822-8.533-8.533v-51.2c0.005-4.711,3.822-8.529,8.533-8.533H486.4c4.711,0.005,8.529,3.822,8.533,8.533
			V486.4z M494.933,349.867c-0.005,4.711-3.822,8.529-8.533,8.533h-76.8c-4.711-0.005-8.529-3.822-8.533-8.533v-51.2
			c0.005-4.711,3.822-8.529,8.533-8.533h76.8c4.711,0.005,8.529,3.822,8.533,8.533V349.867z M494.933,213.333
			c-0.005,4.711-3.822,8.529-8.533,8.533H187.733c-4.711-0.005-8.529-3.823-8.533-8.533v-51.2c0.005-4.711,3.822-8.529,8.533-8.533
			H486.4c4.711,0.005,8.529,3.822,8.533,8.533V213.333z M486.4,85.333h-76.8c-4.711-0.005-8.529-3.822-8.533-8.533V25.6
			c0.005-4.711,3.822-8.529,8.533-8.533h76.8c4.711,0.005,8.529,3.822,8.533,8.533v51.2C494.929,81.511,491.111,85.329,486.4,85.333
			z"/>
	</g>
</g>
<g>
</g>
<g>
</g>
<g>
</g>
<g>
</g>
<g>
</g>
<g>
</g>
<g>
</g>
<g>
</g>
<g>
</g>
<g>
</g>
<g>
</g>
<g>
</g>
<g>
</g>
<g>
</g>
<g>
</g>
</svg>
