<?xml version="1.0" encoding="iso-8859-1"?>
<!-- Generator: Adobe Illustrator 19.0.0, SVG Export Plug-In . SVG Version: 6.00 Build 0)  -->
<svg version="1.1" id="Capa_1" xmlns="http://www.w3.org/2000/svg" xmlns:xlink="http://www.w3.org/1999/xlink" x="0px" y="0px"
	 viewBox="0 0 512 512" style="enable-background:new 0 0 512 512;" xml:space="preserve">
<g>
	<g>
		<g>
			<path d="M434.609,414.089c4.143,0,7.5-3.358,7.5-7.5c0-4.142-3.357-7.5-7.5-7.5h-19.414c-4.143,0-7.5,3.358-7.5,7.5
				c0,4.142,3.357,7.5,7.5,7.5H434.609z"/>
			<path d="M408.816,221.577c-4.004-1.052-8.107,1.343-9.159,5.349s1.343,8.107,5.349,9.159c14.13,3.711,27.151,9.79,38.675,17.741
				H337.539c-4.143,0-7.5,3.358-7.5,7.5c0,4.142,3.357,7.5,7.5,7.5h124c20.575,20.899,33.53,48.927,35.262,79.419H376.367
				c-4.143,0-7.5,3.358-7.5,7.5c0,4.142,3.357,7.5,7.5,7.5h120.371c-4.125,62.872-56.61,113.827-120.534,115.219
				c-0.194,0.004-0.388,0.016-0.578,0.035H270.075c-4.143,0-7.5,3.358-7.5,7.5c0,4.142,3.357,7.5,7.5,7.5h106.292
				c0.313,0,0.621-0.019,0.924-0.057c36.071-0.978,69.827-15.677,95.13-41.442C497.943,426.011,512,391.655,512,355.263
				C512,292.507,469.569,237.534,408.816,221.577z"/>
			<path d="M337.82,450.164c0,4.142,3.357,7.5,7.5,7.5h64.697c4.143,0,7.5-3.358,7.5-7.5c0-4.142-3.357-7.5-7.5-7.5H345.32
				C341.178,442.664,337.82,446.022,337.82,450.164z"/>
			<path d="M318.125,350.668c-4.143,0-7.5,3.358-7.5,7.5c0,4.142,3.357,7.5,7.5,7.5h19.414c4.143,0,7.5-3.358,7.5-7.5
				c0-4.142-3.357-7.5-7.5-7.5H318.125z"/>
			<path d="M106.454,355.263c0,17.663,14.396,32.033,32.091,32.033s32.091-14.37,32.091-32.033
				c0-17.663-14.396-32.033-32.091-32.033S106.454,337.6,106.454,355.263z M138.545,338.23c9.424,0,17.091,7.641,17.091,17.033
				c0,9.392-7.667,17.033-17.091,17.033c-9.424,0-17.091-7.641-17.091-17.033C121.454,345.871,129.121,338.23,138.545,338.23z"/>
			<path d="M240.955,478.501h-39.678c9.404-4.784,18.184-10.605,26.202-17.318c0.368-0.255,0.719-0.546,1.046-0.875
				c0.021-0.02,0.041-0.041,0.062-0.062c15.806-13.516,28.533-30.512,36.979-49.79h86.531c4.143,0,7.5-3.358,7.5-7.5
				c0-4.142-3.357-7.5-7.5-7.5h-80.978c3.881-12.722,5.971-26.221,5.971-40.192c0-13.622-1.984-26.786-5.68-39.227h119.514
				c4.143,0,7.5-3.358,7.5-7.5c0-4.142-3.357-7.5-7.5-7.5h-124.94c-12.807-29.848-35.855-54.327-64.706-69.009h174.557
				c0.176,0.013,0.353,0.019,0.533,0.019c4.143,0,7.5-3.377,7.5-7.519c0-4.142-3.357-7.5-7.5-7.5h-39.427l-52.261-52.136
				c-6.733-6.72-16.773-8.176-24.944-4.369l-14.189-14.157c10.271-12.587,16.438-28.639,16.438-46.099
				c0-37.307-28.02-68.545-65.177-72.664l-81.704-9.057c-2.268-0.251-4.521,0.541-6.131,2.152c-1.61,1.611-2.401,3.868-2.149,6.132
				l9.078,81.512c4.129,37.076,35.434,65.035,72.817,65.035c17.504,0,33.595-6.158,46.21-16.416l14.179,14.145
				c-1.362,2.893-2.08,6.073-2.08,9.365c0,5.888,2.297,11.421,6.468,15.582l21.023,20.974H140.5c-0.124,0-0.247,0.003-0.369,0.009
				c-0.53-0.006-1.055-0.009-1.586-0.009C62.151,217.027,0,279.039,0,355.263s62.151,138.236,138.545,138.236
				c0.513,0,1.026-0.003,1.538-0.008c0.125,0.006,0.251,0.009,0.378,0.009h100.493c4.143,0,7.5-3.358,7.5-7.5
				C248.454,481.858,245.097,478.5,240.955,478.501z M234.862,135.707l-67.775-67.615c-2.931-2.925-7.68-2.92-10.606,0.013
				c-2.925,2.932-2.92,7.681,0.013,10.606l67.746,67.587c-9.838,7.571-22.163,12.078-35.522,12.078
				c-29.731,0-54.627-22.224-57.909-51.695l-8.041-72.194l72.387,8.024c29.548,3.275,51.829,28.105,51.829,57.755
				C246.984,113.596,242.461,125.892,234.862,135.707z M264.089,185.433c-1.33-1.326-2.062-3.088-2.062-4.962
				c0-1.873,0.733-3.635,2.062-4.962c2.758-2.75,7.241-2.75,9.997,0l41.616,41.518h-19.945L264.089,185.433z M146.043,232.251
				c64.643,3.882,116.045,57.573,116.045,123.012c0,35.166-14.845,66.942-38.611,89.416l-16.606-16.567
				c19.507-18.228,31.713-44.142,31.713-72.849c0-15.999-3.68-31.286-10.94-45.434c-1.892-3.686-6.411-5.14-10.097-3.249
				c-3.686,1.891-5.14,6.411-3.249,10.097c6.162,12.009,9.286,24.991,9.286,38.586c0,24.576-10.535,46.746-27.334,62.251
				l-13.41-13.378c13.362-12.072,21.77-29.512,21.77-48.873c0-33.823-25.654-61.779-58.565-65.506h-0.001v-18.994
				c19.816,1.716,38.23,10.221,52.492,24.38c2.937,2.918,7.686,2.902,10.606-0.038c2.918-2.939,2.901-7.688-0.038-10.606
				c-17.091-16.969-39.255-27.034-63.061-28.784V232.251z M138.544,317.246c4.143,0,7.5-3.358,7.5-7.5v-4.864
				c24.615,3.628,43.565,24.838,43.565,50.38c0,15.232-6.741,28.924-17.402,38.265l-4.099-4.088
				c-2.932-2.925-7.681-2.92-10.606,0.013c-2.925,2.932-2.92,7.681,0.013,10.606l1.752,1.749c-6.336,2.816-13.35,4.383-20.723,4.383
				c-4.284,0-8.539-0.529-12.648-1.572c-4.011-1.021-8.096,1.409-9.115,5.423c-1.019,4.014,1.409,8.095,5.424,9.115
				c5.315,1.349,10.812,2.034,16.34,2.034c11.568,0,22.449-2.981,31.916-8.216l13.811,13.778
				c-13.213,8.438-28.907,13.333-45.727,13.333c-44.358,0-80.893-34.05-84.711-77.322h2.201c4.143,0,7.5-3.358,7.5-7.5
				c0-4.142-3.357-7.5-7.5-7.5h-2.201c3.601-40.807,36.297-73.412,77.211-76.995v18.989c-32.911,3.727-58.565,31.683-58.565,65.506
				c0,19.91,8.881,38.549,24.364,51.137c3.217,2.615,7.938,2.124,10.551-1.088c2.613-3.214,2.126-7.937-1.088-10.55
				c-11.965-9.728-18.827-24.124-18.827-39.499c0-25.542,18.95-46.752,43.565-50.38v4.864
				C131.045,313.889,134.401,317.246,138.544,317.246z M131.046,232.252v23.467c-49.193,3.653-88.589,42.961-92.261,92.044H15.227
				C18.975,285.764,68.89,235.984,131.046,232.252z M138.545,478.499c-65.598,0-119.421-51.261-123.318-115.736h23.557
				c3.857,51.552,47.127,92.322,99.761,92.322c20.976,0,40.461-6.473,56.561-17.524l16.825,16.785
				C191.396,469.519,166.004,478.499,138.545,478.499z"/>
		</g>
	</g>
</g>
<g>
</g>
<g>
</g>
<g>
</g>
<g>
</g>
<g>
</g>
<g>
</g>
<g>
</g>
<g>
</g>
<g>
</g>
<g>
</g>
<g>
</g>
<g>
</g>
<g>
</g>
<g>
</g>
<g>
</g>
</svg>
