<?xml version="1.0" encoding="iso-8859-1"?>
<!-- Generator: Adobe Illustrator 19.0.0, SVG Export Plug-In . SVG Version: 6.00 Build 0)  -->
<svg version="1.1" id="Capa_1" xmlns="http://www.w3.org/2000/svg" xmlns:xlink="http://www.w3.org/1999/xlink" x="0px" y="0px"
	 viewBox="0 0 512 512" style="enable-background:new 0 0 512 512;" xml:space="preserve">
<g>
	<g>
		<path d="M409.071,190.346c-0.044-0.06-0.088-0.118-0.134-0.178L264.568,3.875c-1.889-2.438-4.797-3.868-7.881-3.875
			c-0.008,0-0.016,0-0.023,0c-3.075,0-5.98,1.415-7.876,3.838L103.782,189.156c-0.223,0.285-0.429,0.58-0.617,0.883
			C74.674,225.108,59,269.284,59,314.6C59,423.446,147.374,512,256,512s197-88.554,197-197.4
			C453,269.459,437.403,225.353,409.071,190.346z M256,492c-97.598,0-177-79.581-177-177.4c0-41.151,14.377-81.254,40.482-112.92
			c0.336-0.407,0.635-0.835,0.897-1.28L256.626,26.276l136.223,175.781c0.131,0.186,0.269,0.368,0.414,0.546
			C418.888,234.112,433,273.887,433,314.6C433,412.419,353.598,492,256,492z"/>
	</g>
</g>
<g>
	<g>
		<path d="M413.495,280.02l-0.026-0.092c-0.821-3.283-3.269-5.972-6.551-7.062c-0.788-0.261-19.63-6.387-46.274-4.521
			c-24.495,1.719-60.694,10.766-94.042,44.113c-24.779,24.779-36.135,51.128-41.042,73.085l-50.682-50.682
			c-3.906-3.904-10.236-3.904-14.143,0c-3.905,3.905-3.905,10.237,0,14.143l59.231,59.231c0.706,0.706,1.493,1.279,2.328,1.73
			c-1.139,24.8,4.469,42.054,4.719,42.808c0.995,2.996,3.345,5.346,6.341,6.341c0.685,0.227,14.97,4.877,36.163,4.876
			c3.218,0,6.598-0.107,10.11-0.354c24.495-1.717,60.694-10.764,94.042-44.11C432.714,360.479,417.204,292.956,413.495,280.02z
			 M359.526,405.383c-23.04,23.04-50.109,35.906-80.456,38.24c-8.432,0.649-15.966,0.352-22.141-0.283l99.234-99.234
			c3.905-3.905,3.905-10.237,0-14.143c-3.906-3.904-10.236-3.904-14.143,0l-99.234,99.234c-0.635-6.177-0.933-13.711-0.284-22.141
			c2.334-30.347,15.2-57.416,38.241-80.456c23.04-23.041,50.11-35.907,80.457-38.242c15.354-1.186,27.765,0.767,34.325,2.194
			C399.514,308.734,405.224,359.685,359.526,405.383z"/>
	</g>
</g>
<g>
	<g>
		<path d="M235.374,303.201c-61.511-52.326-127.512-31.257-130.294-30.335c-3.282,1.09-5.729,3.779-6.551,7.063l-0.025,0.091
			c-3.709,12.937-19.219,80.46,39.826,139.506c13.175,13.174,27.831,23.603,43.562,30.997c1.375,0.646,2.822,0.953,4.247,0.952
			c3.755,0,7.354-2.125,9.057-5.748c2.35-4.998,0.202-10.955-4.796-13.304c-13.632-6.408-26.393-15.506-37.927-27.04
			c-45.707-45.707-39.984-96.671-35.998-114.842c15.241-3.331,62.097-9.404,105.94,27.895c4.208,3.579,10.518,3.069,14.097-1.138
			C240.09,313.091,239.581,306.78,235.374,303.201z"/>
	</g>
</g>
<g>
	<g>
		<path d="M335.298,169.826l-57.446-74.129c-3.383-4.367-9.667-5.163-14.029-1.779c-4.366,3.383-5.162,9.664-1.779,14.029
			l57.446,74.129c1.971,2.544,4.925,3.875,7.911,3.875c2.14,0,4.297-0.684,6.118-2.096
			C337.885,180.472,338.681,174.191,335.298,169.826z"/>
	</g>
</g>
<g>
	<g>
		<path d="M355.104,195.381l-0.283-0.365c-3.384-4.364-9.664-5.158-14.03-1.774c-4.364,3.384-5.159,9.666-1.774,14.03l0.283,0.365
			c1.971,2.542,4.924,3.872,7.909,3.872c2.141,0,4.298-0.685,6.121-2.098C357.694,206.027,358.489,199.745,355.104,195.381z"/>
	</g>
</g>
<g>
</g>
<g>
</g>
<g>
</g>
<g>
</g>
<g>
</g>
<g>
</g>
<g>
</g>
<g>
</g>
<g>
</g>
<g>
</g>
<g>
</g>
<g>
</g>
<g>
</g>
<g>
</g>
<g>
</g>
</svg>
