<?xml version="1.0" encoding="utf-8"?>
<!-- Generator: Adobe Illustrator 21.0.1, SVG Export Plug-In . SVG Version: 6.00 Build 0)  -->
<svg version="1.1" id="Layer_5_xA0_Image_1_" xmlns="http://www.w3.org/2000/svg" xmlns:xlink="http://www.w3.org/1999/xlink"
	 x="0px" y="0px" viewBox="0 0 265.7 126.5" style="enable-background:new 0 0 265.7 126.5;" xml:space="preserve">
<style type="text/css">
	.st0{fill:#fff;}
	.st1{fill:#fff;}
	.st2{fill:#fff;}
</style>
<g>
	<path class="st0" d="M64.4,85.8c0.6-1.1,1.2-2.1,1.9-3.5c-2.1,0.4-4,0.8-6.1,1.2c3.9-5.6,8.1-10.6,13-15.4c0.3,1.2,0.6,2.2,0.9,3.3
		c0.4,1.5,1,3,1.9,4.3c2.1,3,5.1,3.2,7.5,0.5c2.3-2.6,3.7-5.9,4.9-9.1c0.6-1.4,1-2.9,1.6-4.5c0.3,1.9,0.2,3.6,0.8,5.3
		c0.2,0.6,0.3,1.2,0.6,1.7c1.1,2.2,3.4,2.6,5.2,0.9c1-1,1.6-2.2,2.1-3.5c0.5-1.1,0.8-2.2,1.3-3.4c0.7,1.2,1.6,2.1,3,1.9
		c1.3-0.2,2.3-0.8,3.2-1.7c0.8-0.8,1.3-1.7,2-2.6c0.4,0.4,0.2,0.8,0.2,1.2c0,1.8-0.1,3.7,0.4,5.5c0.8,2.7,3.2,3.3,5.3,1.4
		c1.1-1.1,2-2.4,2.6-3.8c1.4-3,2.5-6.2,3.4-9.5c0.1-0.2,0.1-0.4,0.1-0.6c0.1-0.5,0-0.9-0.5-1.1c-0.5-0.1-0.8,0.2-1,0.7
		c-0.2,0.7-0.3,1.3-0.5,2c-0.8,2.8-1.8,5.6-3.1,8.3c-0.3,0.5-0.5,1.3-1.2,1.2c-0.6-0.1-0.5-1-0.5-1.6c0-3.6,0.6-7.2,1.3-10.7
		c0.3-1.5-0.3-2.3-2.1-2.7c-1.7-0.4-2.4,0-2.8,1.5c-0.1,0.5-0.2,1.1-0.5,1.6c-1.2-1.3-2.5-2.3-4.3-2.4c-1.7-0.2-3.1,0.4-4.2,1.8
		c-0.1,0.2-0.5,0.4-0.1,0.7c0,0,0,0,0,0c-0.3-0.1-0.3,0-0.3,0.3l0,0c-0.5,0.2-0.5,0.7-0.6,1c-0.4,1-0.4,2.1-0.5,3.2
		c0,0.5,0,1-0.1,1.5c-0.5,2.2-1.1,4.3-2.1,6.3c-0.2,0.4-0.4,0.9-0.9,0.9c-0.6-0.1-0.6-0.7-0.7-1.1c-0.5-3.1-0.4-6.2-0.2-9.3
		c0.2-2.8-1.5-4.1-4.2-3.3c-1.2,0.7-2.3,1.4-3.5,2.1c-3.4,2-6.7,4.1-9.9,6.3c0,0-0.1,0-0.2-0.1c-0.3-2.8-0.3-5.7-0.1-8.5
		c0-0.5,0.4-0.7,0.7-0.9c3.8-3.4,5.7-7.6,6-12.6c0.1-1.7-0.1-3.3-0.9-4.9c2.9,2,5.5,4.2,8.5,6.1c-7.8-6.3-14.3-13.8-20-22.4
		c1,0.1,1.9,0.2,2.7,0.3c1.9,0.4,3.8,0.1,5.4-1c2.7-2,5.3-2,8,0.1c0.4,0.3,0.9,0.5,1.4,0.8c1.1,0.6,2.1,0.5,3.1-0.3
		c0.7-0.6,1.4-1.1,2.1-1.6c1.1-0.9,2.3-1,3.6-0.5c1.8,0.7,3.5,1.6,5.2,2.5c2.1,1.1,4.4,1.1,6.7,1.2c3.5,0.2,7,0.3,10.5,0.4
		c3.6,0.1,6.8,1.7,10.2,2.6c2,0.5,3.3,1.6,4.3,3.4c1.7,2.9,3.6,5.6,5.4,8.3c0.3,0.4,0.6,0.9,0.4,1.4c-1.5,5.1-3.3,10-6.7,14.2
		c-1.5,1.8-3.2,3.3-5.7,3.4c-0.5,0-1,0.2-0.9,0.9c0.1,0.6,0.6,0.7,1.1,0.7c2-0.1,3.6-1,5-2.2c2.6-2.3,4.3-5.4,5.7-8.5
		c0.2-0.4,0.2-0.8,0.7-1.2c-0.2,2.2-0.3,4.4-0.3,6.5c0,2.6,0.3,5.2,1,7.7c1,3.5,2.6,6.4,6.5,7.3c4.1,0.9,7.2-0.8,9.8-3.9
		c2.7-3.2,4.3-7,5.7-10.9c0.1-0.3,0.2-0.6,0.5-1c0,4.6-0.1,9.2,0.4,13.8c-1.5-0.7-3-1-4.6-1.1c1.6,0.4,3,1.2,4.6,1.3
		c0.4,1.5,0.6,3,1.1,4.4c1.4,3.6,4.3,4.3,7.3,2c1.7-1.3,2.7-3.2,3.7-5.1c0.9-1.9,1.6-3.8,2.2-5.9c1.7,1.3,3.2,2.6,4.8,3.8
		c-0.7,0.8-1.4,1.6-2.1,2.4c-1.1,1.5-1.7,3.1-1.7,5c0,1.3,0.3,2.4,1.4,3.2c0.4,0.3,0.5,0.5,0,0.9c-4.5,3.4-8.9,6.8-13.3,10.1
		c-0.1-0.1-0.2-0.2-0.3-0.2c2.9-3.1,6-6,9-9c0.3-0.3,0.8-0.6,1-1.2c-0.6,0-0.9,0.4-1.2,0.6c-9.3,6.6-18.7,13.2-28.1,19.6
		c-3.1,2.2-6.3,3.2-10.2,2.6c-6.1-1-12.1,0-18,1.8c-1.9,0.6-3.9,1.2-6.1,1.9c1.3-2.2,2.4-4.2,3.6-6.2c2.2-3.7,4.3-7.4,6.5-11.1
		c0.1-0.3,0.5-0.5,0.3-0.9c0.1,0,0.1,0,0.2-0.1c0,0,0-0.1-0.1-0.1c0,0.1-0.1,0.1-0.1,0.2c-1.1,0.3-1.9,1-2.8,1.5
		c-3.2,1.9-6.5,3.7-9.7,5.5c-4.5,2.5-8.9,2.9-13.7,0.8c-2.5-1.1-5.1-2.1-7.4-3.6c-1.6-0.9-3.1-1.2-4.9-0.4c-3.9,1.8-7.9,1.2-11.8,0
		c-2.4-0.8-4.7-1-7.1-0.4c-0.5,0.1-1,0.2-1.5,0.3C64.5,85.8,64.4,85.8,64.4,85.8z M95.2,48c0-1-0.8-1.8-1.9-1.8
		c-1.1,0-1.8,0.8-1.8,1.9c0,1,0.8,1.7,1.8,1.7C94.4,49.8,95.2,49.1,95.2,48z M99.5,49.4c0.5,0.5,0.7,0.8-0.2,1
		c-0.7,0.2-1.4,0.6-2.2,0.8c0,0.1,0.1,0.2,0.1,0.3c1.5-0.3,2.8-1,4.3-1.5c0.2-0.1,0.3-0.2,0.2-0.4c-0.1-0.1-0.3-0.3-0.4-0.3
		C100.8,50,100.2,49.2,99.5,49.4z M94.8,43.4c-0.6-1.1-1.3-1.5-2.5-1.8C93.1,42.5,93.8,42.9,94.8,43.4z M132.6,55.1
		c1.1,0.5,1.9,0.9,2.9,0.8C134.7,55.4,133.8,55.1,132.6,55.1z M124.4,53.3c0.7,0.3,1.4,0.8,2.5,0.7C126,53.4,125.2,53.3,124.4,53.3z
		 M176,67.4c0.9,0.6,0.9,0.6,1.7,0.3C177.1,67.5,176.6,67.1,176,67.4z M123.3,53.3c-0.6-0.5-1-0.7-1.8-0.4
		C122.1,53.2,122.5,53.5,123.3,53.3z M97.2,44.9c-0.3-0.6-0.3-0.6-1.4-0.7C96.5,44.5,96.7,44.9,97.2,44.9z M95.8,43.8
		c0-0.1-0.1-0.2-0.1-0.2c-0.1,0-0.1,0-0.2,0.1c0.1,0.1,0.1,0.2,0.2,0.2C95.7,43.9,95.7,43.9,95.8,43.8z M136.5,56.2
		c-0.1,0-0.1-0.1-0.2-0.1c-0.1,0-0.1,0.1-0.2,0.1c0.1,0,0.1,0.1,0.2,0.1C136.4,56.3,136.4,56.2,136.5,56.2z M97.9,45.2
		C97.9,45.1,97.9,45.1,97.9,45.2c0-0.1-0.1-0.1-0.1-0.1C97.8,45.1,97.8,45.1,97.9,45.2C97.8,45.2,97.8,45.2,97.9,45.2z M95,43.4
		L95,43.4L95,43.4L95,43.4z"/>
	<path class="st0" d="M171.1,38c2.7,1,5.4,2.1,8.1,3.1c4.2,1.5,8.1,3.7,11.7,6.5c2.5,1.9,5.4,3.1,8.3,4.3c2,0.8,3.3,2.3,4.3,4.2
		c1.6,3.3,2.7,6.8,4,10.1c0.4,0.9,0.7,1.9,1.1,2.8c1,2.4,2.5,4,5,5c14.9,5.9,29.3,12.8,43.5,20.3c0.4,0.2,0.7,0.4,1.3,0.7
		c-2.8,1.9-5.5,3.8-8.7,4.6c-0.8,0.2-1.5,0-2.2-0.4c-7.3-4.1-14.8-7.9-22.3-11.6c-0.9-0.4-1.2-0.3-1.4,0.6c-0.2,0.9-0.6,1.8-0.9,2.7
		c-0.8,2.1-2.7,3-4.3,4.2c-0.2,0.1-0.6,0.2-0.8,0c-1.2-0.6-2.1,0-3.1,0.5c-3,1.6-5.9,3.1-8.9,4.7c-4.5,2.4-9.2,3.8-14.3,4.1
		c-1.7,0.1-3.3,0.3-5.2,0.5c1.3-1.6,2.5-2.9,3.6-4.2c0-0.1-0.1-0.1-0.1-0.2c-0.4,0.2-0.9,0.3-1.3,0.5c-2.8,1.3-5.7,2.5-8.9,2.8
		c-3.5,0.4-6.6,1.7-9.7,3.2c-2,1-4,2-6.1,3c-0.1-0.4,0.2-0.6,0.4-0.8c1.6-2.3,3.2-4.7,4.8-7c1.8-2.8,4.2-5,6.9-7
		c4.1-2.9,7.4-6.4,9.7-10.9c1.2-2.2,2.7-4.2,4.5-5.9c-0.1-0.2-0.2-0.2-0.3-0.1c-5.1,4.5-10.4,8.7-15.1,13.7
		c-3.4,3.6-6.6,7.4-9.9,11.1c-3.1,3.4-7.2,5.2-11.4,6.9c-0.2,0.1-0.5,0-0.8,0.1c2.3-3.2,4.4-6.3,6.7-9.4c5.6-7.6,11-15.3,17.2-22.3
		c1.3-1.5,2.7-2.8,4.2-4.1c0.3-0.2,0.5-0.4,0.9-0.3c4,1.3,9.4-2.5,8.4-8.7c-0.2-1.4-0.7-2.6-1.6-3.7c-0.6-0.7-0.4-1,0.2-1.5
		c1.3-1.1,2.6-2.3,3.3-3.9c0.1-0.3,0.3-0.7,0.4-1c0.1-0.4,0.1-0.9-0.5-1.1c-0.5-0.1-0.8,0.1-1,0.6c-0.6,1.9-2,3.2-3.5,4.5
		c-0.5,0.4-0.8,0.4-1.3,0c-1.6-1.3-3.4-2.5-5-3.9c-0.7-0.6-0.9-1.2-0.4-2.2c1-1.9,1.4-3.9,1.3-6c-0.1-1.5-0.5-2.9-2-3.6
		c-1.6-0.7-3.3-0.6-4.6,0.5c-0.9,0.8-1.1,0.4-1.6-0.4c-1-1.8-2-3.6-3-5.4C171,38.1,171,38,171.1,38z M194.8,66.7
		c-0.5-0.8-1.2-0.7-2-0.8C193.3,66.7,194.1,66.6,194.8,66.7z"/>
	<path class="st0" d="M32.2,52.8c-1.4,0.9-2.9,1.3-4.5,1.4c-0.6,0-1.2,0.1-1.2,0.8c0,0.7,0.7,0.7,1.2,0.6c4.2-0.1,7.3-2.3,9.8-5.5
		c1.3-1.6,2.2-3.4,3.3-5.4c0.6,4.8,1.1,9.4,1.3,13.9c0,0.6-0.3,0.7-0.7,0.9c-3.8,1.4-6.9,3.9-9.6,6.9c-2.5,2.9-3.7,6.2-3.3,10
		c0.1,0.9-0.1,1.1-1,0.8c-2.8-0.8-5.3-1.9-7.8-3.3c-2.4-1.3-3.7-3.2-4.5-5.8c-1.3-4.9-2.2-10-3.2-15c-0.6-2.8,0.3-5.5,1.1-8.2
		c1.2-4.2,2.9-8.2,5.4-11.8c2.2-3.1,5-5.4,8.5-6.9c6.2-2.6,12.7-4.2,19.3-5.6c2.7-0.6,5.5-1.1,8.2-1.7c0.8-0.2,1.3,0,1.8,0.6
		c3.7,4.4,7.5,8.7,11.3,13.1c0.3,0.3,0.5,0.8,1.3,1.1c-3.7-4.9-7.2-9.6-10.9-14.4c3.3-0.4,6.3-1.3,9.5-1.1c0.4,0,0.7,0.2,0.9,0.5
		c3.5,5.2,7.8,9.7,12.5,13.9c0,0,0,0.1,0,0.2c-2.8-0.8-4.1,0.9-5.2,3c-1.6,3.2-2.2,6.7-2.7,10.1c-0.4,2.9-0.4,5.8-0.8,8.7
		c-0.5,3.7-1.6,7.3-3.3,10.7c-0.2,0.4-0.4,1-1,0.9c-0.5-0.2-0.5-0.8-0.5-1.3c-0.2-3.3,0.1-6.6,0.6-9.9c0.4-2.8-0.6-3.7-3.4-3
		c-0.9,0.2-1.4,0.7-1.6,1.7c-0.6,2.6-1.3,5.3-2.8,7.6c-0.5,0.8-1,2-2.1,1.7c-1.1-0.3-1-1.6-1.1-2.6c-0.1-1.8,0-3.6,0.4-5.4
		c0.2-1-0.2-1.6-1.2-1.9c-1.9-0.6-3.3,0.1-4,1.9c-0.3,0.8-1.1,1.2-1.8,1.5c-0.5,0.3-1,0.5-1.6,0.6c-0.6,0.2-1.2,0.3-1.9,0.5
		c-0.3-3-0.5-5.9-0.8-8.8c-0.5-5-1.3-9.9-2.2-14.8c-0.1-0.5-0.2-1.1-0.9-1.1c-0.8,0-0.7,0.6-0.8,1.1c-1,4.6-2.4,9-4.9,13
		c-0.9,1.5-1.9,2.8-3.3,3.9c-0.3,0-0.6,0-0.9,0c-0.6,0.1-1,1.1-1.8,0.5c-0.1,0.1-0.2,0.3-0.2,0.4c-0.1,0.3,0.1,0.2,0.3,0.2
		C31.9,52.4,32,52.6,32.2,52.8z M69,34.2c0-0.1,0-0.2-0.1-0.3c0,0-0.1,0-0.1,0C68.9,34.1,68.9,34.1,69,34.2c0.1,0.1,0.1,0.2,0.2,0.4
		c0,0,0.1-0.1,0.1-0.1C69.2,34.3,69.2,34.2,69,34.2z M28,53.4c0.6,0,1.2,0,1.5-0.8C28.8,52.7,28.1,52.5,28,53.4c0,0,0,0.1-0.1,0.1
		C27.9,53.5,27.9,53.4,28,53.4z M25.6,54c-1.5,0.2-3,0.6-4.4,1.5C22.8,55.4,24.2,54.6,25.6,54z M30.7,52.3c-0.3,0.1-0.8-0.4-0.8,0.2
		c0,0.3,0.4,0.3,0.7,0.3c0.3,0,0.6-0.1,0.6-0.4C31.1,52,30.9,52.2,30.7,52.3z M26.7,53.8c0.4,0.1,0.6,0,0.7-0.3
		c0-0.1-0.1-0.2-0.1-0.2C26.9,53.3,26.8,53.5,26.7,53.8z M26.2,53.9C26.2,53.8,26.2,53.8,26.2,53.9c-0.1,0-0.1,0-0.1,0.1
		C26.1,53.9,26.2,54,26.2,53.9C26.2,53.9,26.2,53.9,26.2,53.9z"/>
	<path class="st0" d="M145.4,42.7c1.1,1.6,2,3.1,3,4.6c0.2-0.3,0-0.5-0.1-0.8c-0.4-0.7-0.6-1.5-1.1-2.1c-1.6-2.3-1.8-4.8-1.1-7.5
		c0.3-1.2,0.4-2.4,0.7-3.5c0.2-1-0.2-1.6-1.2-1.7c-1.5-0.2-3-0.3-4.1,1.2c-1-2.1-2-4.1-3.2-6.5c1.6,0.5,2.9,0.9,4.2,1.4
		c4.2,1.4,8.5,2.9,12.7,4.3c0.6,0.2,1.1,0.6,1.4,1.2c1.8,3.1,3.8,6.2,6,9.1c0.5,0.6,0.5,1.1,0.3,1.9c-1.4,5.2-3,10.3-6,14.8
		c-0.9,1.3-1.9,2.5-3.3,3.5c-2.6,1.8-4.9,1.4-6.5-1.3c-1.3-2.1-1.8-4.4-2.1-6.8c-0.5-3.5-0.3-7.1,0-10.6
		C145.2,43.3,145.3,43.1,145.4,42.7z M155.2,54.7c-1.3-0.4-2.5-1-3.9-1C152.5,54.4,153.8,54.7,155.2,54.7z M148.5,53.2
		c-0.9-0.3-1.7-0.8-2.7-0.6C146.7,52.8,147.5,53.4,148.5,53.2z"/>
	<path class="st0" d="M52.1,57.8c0,1.7-0.1,3.3,0.4,4.8c0.5,1.7,1.4,3,3.2,3.4c1.8,0.4,3.4-0.2,4.6-1.6c0.8-0.9,1.4-2,2.2-3.3
		c0,2.1,0,3.8,0.4,5.5c0.1,0.5,0.2,0.9,0.4,1.4c1,2.7,3.5,3.2,5.4,1.1c1.7-1.8,2.5-4.1,3.3-6.3c0.1-0.4,0.3-0.8,0.6-1.2
		c0.1,1.4,0.2,2.7,0.4,4.1c0.1,0.5-0.3,0.7-0.6,1c-5.8,4.8-11,10.1-15.5,16.2c-0.1,0.1-0.1,0.2-0.2,0.3c-1.5,0.8-3.1,1.6-4.6,2.4
		c-0.1-0.1-0.1-0.2-0.2-0.3c0.6-0.7,1.3-1.3,1.9-2c0.7-0.8,0.4-1.4-0.6-1.6c-0.8-0.2-1.6,0-2.2,0.2c-3.3,1.3-6.5,0.3-10,0.2
		c0.8-0.9,1.6-1.4,2.2-2.1c2-2.6,2.8-5.6,3.4-8.7c0.7-3.6,0.8-7.1,0.7-10.7c0-0.7,0.2-1.1,0.9-1.2C49.4,59,50.7,58.5,52.1,57.8z"/>
	<path class="st0" d="M42.1,64.5c-0.2,3.7-0.6,7.3-1.9,10.8c-1.1,2.9-2.3,3.8-5.5,3.5c-1.3-0.1-2.5-0.4-3.8-0.6
		c-0.6-0.1-0.8-0.3-0.9-0.9c-0.6-2.9-0.1-5.7,1.6-8.1c2.4-3.5,5.5-6.1,9.4-7.9c0.7-0.3,1.1-0.4,1,0.6C42,62.8,42.1,63.6,42.1,64.5z"
		/>
	<path class="st0" d="M91.3,54.2c1-0.1,0.8,0.6,0.7,1.1c-0.4,1.7-0.9,3.4-1.4,5.1c-0.1,0-0.2,0-0.3,0c0-1.3,0-2.5,0-3.8
		c0,0-0.1,0-0.1,0c-0.3,1.2-0.7,2.4-1,3.7c-1.3,4.4-2.7,8.8-5.1,12.7c-0.6,1-1.1,2.3-2.4,2.2c-1.4-0.1-1.7-1.5-2.1-2.6
		c-0.9-2.6-1.3-5.2-1.6-7.9c0-0.5,0-0.8,0.4-1.2c3.2-2.7,6.5-5.2,10.1-7.3C89.2,55.3,90.7,55.5,91.3,54.2z"/>
	<path class="st0" d="M168.6,49.6c2.6,2.8,5,5.3,7.6,7.6c0.4,0.3,0.4,0.7,0.3,1.1c-0.9,2.9-1.8,5.8-3.4,8.4c-0.5,0.8-1,1.8-2.1,1.6
		c-1-0.2-1.2-1.3-1.5-2.1c-0.7-2.2-0.8-4.4-0.9-6.6C168.3,56.3,168.3,53.1,168.6,49.6z"/>
	<path class="st0" d="M77.8,50.9c0.3-4.7,1-9.2,2.8-13.6c0-0.1,0.1-0.2,0.2-0.3c0.3-0.4,0.4-1.1,1-1c0.6,0.1,0.6,0.8,0.7,1.3
		C83.4,42.6,81.4,47,77.8,50.9z"/>
	<path class="st0" d="M174.2,54.3c-2-1.9-3.6-4.2-5.2-6.4c-0.2-0.2-0.3-0.5-0.3-0.8c0.2-2.2,0.4-4.4,0.8-6.6
		c1.3,2.4,2.6,4.9,3.8,7.3c0.2,0.3,0.1,0.8,0.1,1.2c0,1.7,0.5,3.4,1.1,5C174.3,54.2,174.3,54.2,174.2,54.3z"/>
	<path class="st0" d="M180.5,70.1c-0.1-2.7,1.4-4.4,3-6c0.4-0.4,0.6-0.2,0.8,0.2c0.6,0.8,0.8,1.7,0.7,2.7c-0.2,1.5-0.9,2.8-2,3.9
		c-0.5,0.5-1.1,1.2-1.9,0.9C180.3,71.5,180.5,70.6,180.5,70.1z"/>
	<path class="st0" d="M104.4,59.4c0-1.4,0.1-2.8,0.8-4.1c0.4-0.8,0.9-1.3,1.8-0.9c0.9,0.3,1.8,1.8,1.6,2.4c-0.7,1.8-1.6,3.5-2.8,5.1
		c-0.2,0.2-0.4,0.5-0.7,0.4c-0.3-0.1-0.4-0.4-0.4-0.7C104.5,60.9,104.5,60.2,104.4,59.4z"/>
	<path class="st0" d="M159.5,32.3c1.9,0.7,3.4,1.2,5,1.8c0.2,0.1,0.6,0.1,0.5,0.4c-0.5,1.7-0.4,3.6-1,5.4
		C162.5,37.4,161.1,35,159.5,32.3z"/>
	<path class="st0" d="M179.3,52.6c-0.9-2.3-1.1-4.4-0.5-6.5c0.1-0.5,0.3-1,0.9-1c0.6,0,0.7,0.6,0.8,1
		C180.9,48.3,180.2,50.4,179.3,52.6z"/>
	<path class="st1" d="M99.2,60.3c0-0.5,0-1,0.1-1.5c0.2,0.1,0.4,0.1,0.4-0.2c0.3-1.4,0.7-2.7,0.7-4.1c0,0,0,0,0,0
		c0.2,0.1,0.2-0.1,0.3-0.3c0,0,0,0,0,0c0.8-0.2,1.3,0.1,1.1,0.9c-0.5,2.5-0.9,5-1.7,7.6C99.4,62.1,99.8,61.1,99.2,60.3z"/>
	<path class="st1" d="M91.3,54.2c-0.6,1.3-2.1,1-3,1.8c-0.2,0-0.4-0.1-0.6-0.1c1.2-0.7,2.3-1.4,3.5-2.1C91.3,54,91.3,54.1,91.3,54.2
		z"/>
	<path class="st1" d="M32.2,52.8c-0.2-0.1-0.4-0.3-0.6-0.3c-0.2,0-0.4,0-0.3-0.2c0-0.1,0.1-0.3,0.2-0.4c0.8,0.6,1.2-0.5,1.8-0.5
		c0.3,0,0.6,0,0.9,0C33.7,51.9,33,52.4,32.2,52.8z"/>
	<path class="st1" d="M163.6,63.4c-1.6-0.1-3.1-0.9-4.6-1.3c1.6,0.1,3.1,0.4,4.6,1.1C163.7,63.3,163.7,63.4,163.6,63.4z"/>
	<path class="st1" d="M90.3,60.4c0.1,0,0.2,0,0.3,0c0,0.3-0.1,0.5-0.3,0.7C90.2,60.8,90.2,60.6,90.3,60.4z"/>
	<path class="st0" d="M174.4,54.1c0.2,0.1,0.2,0.3,0.1,0.5c-0.1-0.1-0.2-0.2-0.3-0.2C174.3,54.2,174.3,54.2,174.4,54.1z"/>
	<path class="st0" d="M167,84.2c-0.1,0.1-0.3,0.2-0.4,0.4c-0.1-0.1-0.1-0.2-0.2-0.2c0.1-0.1,0.2-0.2,0.3-0.4
		C166.8,84,166.9,84.1,167,84.2z"/>
	<path class="st0" d="M166.3,84.7c-0.2,0.1-0.3,0.2-0.5,0c0.1-0.1,0.3-0.1,0.4-0.2C166.2,84.6,166.3,84.7,166.3,84.7z"/>
	<path class="st0" d="M166.2,84.6c0.1-0.1,0.2-0.2,0.2-0.3c0.1,0.1,0.1,0.2,0.2,0.2c-0.1,0.1-0.2,0.1-0.3,0.2
		C166.3,84.7,166.2,84.6,166.2,84.6z"/>
	<path class="st0" d="M64.5,85.9c-0.1,0.1-0.2,0.1-0.2,0c0,0,0.1-0.1,0.1-0.1C64.4,85.8,64.5,85.8,64.5,85.9z"/>
	<path class="st1" d="M99.5,49.4c0.7-0.2,1.3,0.6,1.8,0c0,0,0.3,0.1,0.4,0.3c0.1,0.2,0,0.3-0.2,0.4c-1.4,0.5-2.8,1.2-4.3,1.5
		c0-0.1-0.1-0.2-0.1-0.3c0.7-0.3,1.4-0.7,2.2-0.8C100.2,50.2,100.1,49.9,99.5,49.4z"/>
	<path class="st2" d="M100.4,54.6c0,1.4-0.5,2.7-0.7,4.1c-0.1,0.3-0.2,0.3-0.4,0.2c0.2-1.1,0.2-2.2,0.5-3.2
		C100,55.2,99.9,54.7,100.4,54.6z"/>
	<path class="st1" d="M94.8,43.4c-1.1-0.5-1.8-0.9-2.5-1.8C93.5,41.9,94.2,42.3,94.8,43.4z"/>
	<path class="st1" d="M132.6,55.1c1.3,0,2.1,0.3,2.9,0.8C134.5,56,133.7,55.6,132.6,55.1z"/>
	<path class="st1" d="M124.4,53.3c0.8,0,1.6,0.1,2.5,0.7C125.8,54.1,125.1,53.6,124.4,53.3z"/>
	<path class="st1" d="M176,67.4c0.6-0.3,1.1,0,1.7,0.3C176.9,68.1,176.9,68.1,176,67.4z"/>
	<path class="st1" d="M123.3,53.3c-0.8,0.2-1.3-0.1-1.8-0.4C122.3,52.5,122.7,52.8,123.3,53.3z"/>
	<path class="st1" d="M97.2,44.9c-0.5,0-0.7-0.4-1.4-0.7C96.9,44.3,96.9,44.3,97.2,44.9z"/>
	<path class="st1" d="M95.8,43.8c-0.1,0-0.1,0.1-0.2,0.1c-0.1-0.1-0.1-0.2-0.2-0.2c0.1,0,0.1-0.1,0.2-0.1
		C95.7,43.7,95.8,43.8,95.8,43.8z"/>
	<path class="st1" d="M136.5,56.2c-0.1,0-0.1,0.1-0.2,0.1c-0.1,0-0.1-0.1-0.2-0.1c0.1,0,0.1-0.1,0.2-0.1
		C136.4,56.1,136.4,56.1,136.5,56.2z"/>
	<path class="st1" d="M97.9,45.2C97.8,45.2,97.8,45.2,97.9,45.2c-0.1,0-0.1-0.1-0.1-0.1C97.8,45.1,97.8,45.1,97.9,45.2
		C97.9,45.1,97.9,45.1,97.9,45.2z"/>
	<path class="st2" d="M100.7,54.3c0,0.2,0,0.3-0.3,0.3C100.4,54.4,100.4,54.2,100.7,54.3z"/>
	<polygon class="st1" points="95,43.4 95.1,43.5 95,43.4 	"/>
	<path class="st2" d="M123.5,82.2c0-0.1,0.1-0.1,0.1-0.2c0,0,0,0.1,0.1,0.1C123.6,82.2,123.5,82.2,123.5,82.2
		C123.5,82.2,123.5,82.2,123.5,82.2z"/>
	<path class="st1" d="M194.8,66.7c-0.7-0.1-1.5,0-2-0.8C193.5,66,194.3,66,194.8,66.7z"/>
	<path class="st1" d="M25.6,54c-1.4,0.6-2.8,1.3-4.4,1.5C22.6,54.7,24.1,54.2,25.6,54z"/>
	<path class="st1" d="M28,53.4c0.1-0.9,0.8-0.7,1.5-0.8C29.1,53.4,28.5,53.4,28,53.4L28,53.4z"/>
	<path class="st1" d="M30.7,52.3c0.2-0.1,0.4-0.4,0.4,0.1c0,0.4-0.3,0.4-0.6,0.4c-0.3,0-0.7,0-0.7-0.3C29.9,52,30.4,52.4,30.7,52.3z
		"/>
	<path class="st1" d="M26.7,53.8c0.1-0.3,0.3-0.5,0.6-0.5c0.1,0,0.2,0.2,0.1,0.2C27.3,53.8,27.1,53.9,26.7,53.8z"/>
	<path class="st2" d="M69,34.2c0.2-0.1,0.2,0.1,0.2,0.3c0,0,0,0.1-0.1,0.1C69.1,34.5,69.1,34.3,69,34.2L69,34.2z"/>
	<path class="st1" d="M26.2,53.9C26.2,53.9,26.2,53.9,26.2,53.9c-0.1,0.1-0.1,0.1-0.1,0.1C26.1,53.9,26.1,53.8,26.2,53.9
		C26.2,53.8,26.2,53.8,26.2,53.9z"/>
	<path class="st2" d="M69,34.2c-0.1-0.1-0.1-0.1-0.2-0.2c0,0,0.1,0,0.1,0C68.9,34,69,34.1,69,34.2C69,34.2,69,34.2,69,34.2z"/>
	<path class="st1" d="M28,53.4c0,0,0,0.1-0.1,0.1C27.9,53.5,27.9,53.4,28,53.4C28,53.4,28,53.4,28,53.4z"/>
	<path class="st1" d="M155.2,54.7c-1.4-0.1-2.7-0.4-3.9-1C152.7,53.7,153.9,54.4,155.2,54.7z"/>
	<path class="st1" d="M148.5,53.2c-1,0.3-1.8-0.3-2.7-0.6C146.8,52.4,147.6,52.9,148.5,53.2z"/>
</g>
</svg>
