<svg xmlns="http://www.w3.org/2000/svg" viewBox="0 0 222.7 360.7">
  <path fill-rule="evenodd" clip-rule="evenodd" fill="#30B2C1" d="M111.3 3.6c160.4 0 127.8 359.1 0 352.8-127.7 6.4-160.6-352.8 0-352.8z"/>
  <path fill-rule="evenodd" clip-rule="evenodd" fill="#FFF" d="M111.3 9.2c155.3 0 123.7 347.7 0 341.6C-12.4 357-44.2 9.2 111.3 9.2z"/>
  <path fill-rule="evenodd" clip-rule="evenodd" fill="#24201F" d="M111.3 18.2c-15.5 0-30 3.9-43 12.8-44.8 30.2-54 104.6-51.1 154.4 1.9 33.5 9.2 69.6 23.6 99.9 10.4 22 27.3 46.3 51.5 54 5.9 1.9 12.2 2.7 18.5 2.4h1c6.3.3 12.5-.4 18.5-2.4 24.2-7.7 41.1-32 51.5-54.1 14.3-30.4 21.7-66.4 23.5-99.9 2.8-49.6-6.3-124.1-51.2-154.4-12.8-8.8-27.4-12.7-42.8-12.7z"/>
  <path fill-rule="evenodd" clip-rule="evenodd" fill="#30B2C1" d="M205.6 180.8l.1-1.6c-.9.1-1.8.2-2.7.2h-.1c1-.6 2-1.2 2.8-2 .1-2.5.1-5.2.2-7.7-.4 1.7-1.5 3.1-2.8 4.3-5.5 4.4-11.9 2.9-15.1-1.8-4.6-6.5-.8-16.6 5.7-19.6 3.6-1.7 7.4-2 11.7-1.1-.1-1.5-.1-2.9-.2-4.4-4.4-.8-8.2-.6-11.3.7-9.4 3.6-11.7 10.8-12.2 16-.4 5.3 1.5 12.3 7.8 15.7 1.8.9 3.7 1.5 5.7 1.6l.1.1c3.6.1 7 0 10.3-.4zm.2-15.2c0-2.5 0-4.9-.1-7.5-5.4-2.9-12.5-.1-13.2 4.7-.9 5.5 2.5 7.7 5.3 6.7s2.9-3.7 1.6-5v.1c.1 1.7-1.5 2.4-2.5 1.9-1.3-.7-1.2-2.4-.2-3.7 1.7-2.4 4.8-2.4 6.7-.9 1.3 1 2.1 2.4 2.4 3.7z"/>
  <path fill-rule="evenodd" clip-rule="evenodd" fill="#8FD4D6" d="M169.7 99c-7.3 2.6-14.9 4.3-23.7 4.8 0 0-.5.9-1.3 1.6.4-.3.7-.5.9-.9 11.6-.3 22.9-1.7 28.9-4 6.2-2.4 10.9-7.9 4.8-11.8 1 2.8-1.9 7.6-9.6 10.3zm-23.7 9.5c8.7.5 16.4 2.3 23.7 4.8 7.7 2.7 10.6 7.5 9.7 10.5 6-3.9 1.3-9.5-4.8-12-6-2.3-17.3-3.8-28.9-4-.4-.4-.8-.9-1.3-1.2 3.4 0 8.1.3 12.5.5 5.1.4 11.4 2.2 16.8 2.2s6.5-1.7 11.2-3.1v-.1c-4.7-1.3-5.8-3.1-11.2-3.1-5.4 0-11.7 1.9-16.8 2.2-4.4.3-9.1.7-12.4.7-.3.1-.5.3-.7.4 0-.1.9.5 2.2 2.2z"/>
  <path fill="#30B2C1" d="M185.8 249.1c1.1.2 2 0 2.9-.7.9-.7 1.5-1.6 1.6-2.7.2-1.2 0-2.2-.6-3.2-.7-.9-1.5-1.5-2.6-1.7-1-.2-2 0-2.9.7-.8.7-1.3 1.6-1.6 2.7-.1 1.2.1 2.2.7 3.2.7.9 1.4 1.5 2.5 1.7zM183.1 261.5c1.1.2 2 .1 3-.4.9-.7 1.5-1.6 1.7-2.7.3-1.1.1-2.1-.4-3.1-.6-1-1.3-1.7-2.4-1.9-1-.3-2-.2-2.9.4-.9.6-1.5 1.5-1.8 2.6-.2 1.1-.1 2.2.4 3.2.6.9 1.4 1.6 2.4 1.9zM179.6 273.7c1 .3 2 .3 2.9-.2 1-.4 1.7-1.2 2-2.4.3-1.1.2-2.2-.2-3.2-.4-1.1-1.2-1.8-2.2-2.1-1-.4-2-.3-2.9.1-1 .6-1.7 1.3-2 2.5-.3 1.1-.2 2.2.2 3.2s1.2 1.8 2.2 2.1zM175.2 285.5c1 .4 2 .4 2.9 0 1-.4 1.8-1.1 2.1-2.2.4-1.1.4-2.1 0-3.2-.3-1.1-1.1-1.9-2-2.4-1-.4-2-.4-3 0s-1.7 1.2-2.1 2.4c-.3 1-.3 2.1 0 3.2.4 1 1.1 1.7 2.1 2.2zM169.5 297c.9.6 1.9.7 2.9.3 1-.3 1.8-.9 2.4-1.9.6-1.1.7-2.1.3-3.2-.2-1.1-.9-2-1.8-2.6-.9-.6-1.9-.7-2.9-.4-1.1.3-1.9 1-2.4 2-.6 1-.7 2.1-.3 3.2.2 1.2.9 2.1 1.8 2.6zM162.3 307.8c.9.7 1.9 1 2.9.8 1-.1 1.9-.7 2.6-1.6.7-.9.9-2 .8-3.1-.2-1.1-.7-2.1-1.6-2.8-.8-.7-1.8-1-2.8-.9-1.1.2-1.9.8-2.6 1.7-.7.9-.9 1.9-.8 3.1.2 1.1.8 2 1.5 2.8zM153.7 317.3c.8.9 1.7 1.3 2.7 1.3 1.1.1 2-.3 2.8-1.1.8-.8 1.1-1.8 1.2-2.9 0-1.2-.3-2.2-1-3-.8-.9-1.7-1.3-2.7-1.3-1.1-.1-2 .3-2.8 1.1-.8.8-1.2 1.8-1.2 2.9-.1 1.2.3 2.2 1 3zM143.7 325.2c.6 1 1.3 1.6 2.4 1.8 1.1.3 2 .1 2.9-.6.9-.7 1.5-1.6 1.7-2.7.2-1.1 0-2.2-.6-3.1-.6-1-1.3-1.6-2.5-1.8-1-.3-2-.1-2.9.6s-1.5 1.6-1.7 2.7c0 1 .1 2.2.7 3.1zM132 330.8c.4 1 1.1 1.8 2.1 2.4.9.4 1.9.4 2.9.1 1-.4 1.7-1.2 2.1-2.2.4-1.1.4-2.1.1-3.2-.3-1.1-1.1-1.9-2-2.4-1-.4-2-.6-3-.1-1 .4-1.7 1.1-2.1 2.2-.5.9-.5 2-.1 3.2zM119.9 333.7c.1 1.1.7 2 1.6 2.7.9.7 1.8.9 2.9.7 1-.2 1.8-.8 2.5-1.7.6-1 .8-2 .6-3.2-.1-1.1-.7-2-1.6-2.7-.9-.7-1.8-.9-2.9-.7-1 .2-1.8.8-2.5 1.7-.6.9-.8 1.9-.6 3.2zM107.3 334c0 1.1.3 2.1 1.1 3 .8.8 1.7 1.2 2.7 1.2 1.1 0 2-.3 2.8-1.2.8-.8 1.1-1.8 1.1-2.9 0-1.2-.3-2.2-1.1-3-.7-.9-1.6-1.2-2.7-1.2-1.1-.1-2 .3-2.8 1.1-.6.9-1.1 1.9-1.1 3zM95.1 332.1c-.2 1.2 0 2.2.7 3.2.6.9 1.3 1.5 2.5 1.7 1 .2 2 0 2.9-.7.8-.7 1.3-1.6 1.6-2.7.2-1.2 0-2.2-.7-3.2-.6-.9-1.5-1.5-2.5-1.7-1-.2-2 0-2.9.7-.9.7-1.3 1.6-1.6 2.7zM83.3 327.7c-.3 1-.3 2.1.1 3.2.4 1 1.1 1.8 2.1 2.1 1 .4 2 .4 2.9 0 1-.6 1.7-1.2 2.1-2.4.3-1.1.3-2.2-.1-3.2-.4-1.1-1.1-1.8-2.1-2.2-1-.4-2-.4-2.9.1-1 .5-1.7 1.3-2.1 2.4zM72.4 320.6c-.6.9-.8 2-.6 3.1.2 1.1.8 2 1.7 2.7.9.7 1.8.9 2.9.7 1-.3 1.8-.9 2.5-1.9.6-.9.8-2 .6-3.1-.2-1.1-.8-2-1.7-2.7s-1.9-.9-2.9-.6c-1.1.2-2 .7-2.5 1.8zM63.2 311.6c-.8.9-1.1 1.9-1.1 3 .1 1.1.4 2.1 1.2 2.9.8.8 1.7 1.2 2.8 1.1 1.1 0 2-.4 2.7-1.3.8-.8 1.1-1.8 1-3 0-1.1-.3-2.1-1.1-2.9-.8-.8-1.8-1.1-2.8-1.1-1.1 0-2 .4-2.7 1.3zM49.2 289.6c-.9.6-1.5 1.5-1.8 2.6-.3 1.1-.2 2.2.3 3.2s1.3 1.7 2.4 1.9c1 .3 2 .2 2.9-.3.9-.6 1.6-1.5 1.8-2.6.3-1.1.2-2.1-.3-3.1-.4-1-1.2-1.7-2.4-2-1-.3-1.9-.2-2.9.3zM44.3 277.8c-.9.4-1.7 1.2-2 2.2-.4 1.1-.4 2.2 0 3.2.3 1.1 1.1 1.8 2.1 2.2.9.4 1.9.4 2.9 0s1.7-1.1 2.1-2.2c.3-1.1.3-2.1 0-3.2-.4-1.1-1.1-1.8-2.1-2.2-1-.5-2-.5-3 0zM40.5 265.8c-1 .3-1.8 1.1-2.2 2.1-.4 1.1-.6 2.1-.2 3.2.3 1.1 1 1.9 2 2.5.9.4 1.9.6 2.9.1 1-.3 1.8-1 2.2-2.1.4-1 .6-2.1.2-3.2-.3-1-1-1.9-2-2.4-.9-.6-1.9-.6-2.9-.2zM37.5 253.3c-1 .2-1.9.9-2.4 1.9-.6 1-.8 2-.4 3.2.2 1.1.8 1.9 1.7 2.6 1 .6 1.9.8 3 .4 1-.2 1.8-.9 2.4-1.9.6-1 .7-2 .4-3.2-.3-1.1-.9-1.9-1.8-2.6-.8-.5-1.8-.7-2.9-.4zM57.2 299.9c-1 .3-1.8 1.1-2.2 2.1-.4 1-.6 2.1-.2 3.2.3 1.1 1 1.9 2 2.4.9.6 1.9.7 2.9.2 1-.3 1.8-1 2.2-2.1.4-1 .6-2.1.2-3.2-.3-1-1-1.9-2-2.4-.9-.5-1.9-.5-2.9-.2zM35.4 240.8c-1.1.2-1.9.8-2.6 1.8-.6.9-.8 1.9-.7 3.1.2 1.1.8 2 1.7 2.7.8.7 1.8.9 2.8.7 1.1-.1 1.9-.7 2.6-1.7.6-.9.8-2 .7-3.1-.2-1.1-.8-2.1-1.7-2.8-.8-.6-1.8-.9-2.8-.7z"/>
  <path fill-rule="evenodd" clip-rule="evenodd" fill="#30B2C1" d="M16.9 180.8v-1.6c.8.1 1.7.2 2.7.2h.1c-1.1-.6-2.1-1.2-2.9-2-.1-2.5-.1-5.2-.1-7.7.4 1.7 1.3 3.1 2.8 4.3 5.4 4.4 11.9 2.9 15.1-1.8 4.6-6.5.7-16.6-5.7-19.6-3.7-1.7-7.5-2-11.8-1.1.1-1.5.2-2.9.3-4.4 4.4-.8 8.1-.6 11.2.7 9.5 3.6 11.8 10.8 12.2 16 .6 5.3-1.5 12.3-7.7 15.7-1.8.9-3.8 1.5-5.7 1.6-.1 0-.1 0-.1.1-3.5.1-7.1 0-10.4-.4zm-.2-15.2c0-2.5.1-4.9.2-7.5 5.3-2.9 12.4-.1 13.2 4.7.8 5.5-2.5 7.7-5.3 6.7s-2.9-3.7-1.6-5v.1c-.1 1.7 1.5 2.4 2.4 1.9 1.3-.7 1.2-2.4.2-3.7-1.7-2.4-4.8-2.4-6.7-.9-1.2 1-1.9 2.4-2.4 3.7z"/>
  <path fill-rule="evenodd" clip-rule="evenodd" fill="#8FD4D6" d="M52.5 114c7.3-2.6 14.9-4.3 23.7-4.8 0 0 .5-.8 1.3-1.6-.4.3-.7.7-.9.9-11.6.3-22.9 1.7-28.9 4-6.2 2.4-10.9 8.1-4.8 12-1-3 2-7.8 9.6-10.5zm23.7-9.6c-8.7-.5-16.4-2.3-23.7-4.8-7.7-2.7-10.6-7.5-9.7-10.5-6 4-1.3 9.5 4.8 12 6 2.3 17.3 3.8 28.9 4 .4.5.8.9 1.3 1.3-3.4 0-8.1-.4-12.5-.7-5.1-.3-11.4-2.2-16.8-2.2s-6.5 1.7-11.2 3.1v.1c4.7 1.3 5.8 3.1 11.2 3.1 5.4 0 11.7-1.9 16.8-2.2 4.4-.3 9.1-.5 12.4-.7.3-.1.5-.3.7-.4.1.2-.8-.2-2.2-2.1z"/>
  <path fill-rule="evenodd" clip-rule="evenodd" fill="#30B2C1" d="M167.6 175.4c16.4 0 29.7 13.3 29.7 29.7 0 16.5-13.3 29.8-29.7 29.8-16.5 0-29.8-13.3-29.8-29.8 0-16.4 13.3-29.7 29.8-29.7z"/>
  <path fill-rule="evenodd" clip-rule="evenodd" fill="#8FD4D6" d="M167.6 176.7c15.6 0 28.3 12.8 28.3 28.3 0 15.7-12.8 28.3-28.3 28.3-15.7 0-28.3-12.7-28.3-28.3 0-15.5 12.6-28.3 28.3-28.3z"/>
  <path fill-rule="evenodd" clip-rule="evenodd" fill="#24201F" d="M167.6 180.6c13.4 0 24.4 10.9 24.4 24.4 0 13.6-11 24.5-24.4 24.5-13.6 0-24.5-11-24.5-24.5s11-24.4 24.5-24.4z"/>
  <path fill-rule="evenodd" clip-rule="evenodd" fill="#FFF" d="M167.6 185.7c10.6 0 19.4 8.7 19.4 19.4 0 10.8-8.7 19.4-19.4 19.4-10.8 0-19.4-8.6-19.4-19.4 0-10.7 8.7-19.4 19.4-19.4z"/>
  <path fill-rule="evenodd" clip-rule="evenodd" fill="#8FD4D6" d="M167.6 191.7c7.4 0 13.3 5.9 13.3 13.3s-5.9 13.4-13.3 13.4-13.4-6-13.4-13.4c0-7.3 6-13.3 13.4-13.3z"/>
  <path fill="#30B2C1" d="M195.8 204.3c.4 0 .9.3.9.8 0 .4-.4.8-.9.8h-26.3l18.7 18.7c.2.2.2.8 0 1.1-.3.3-.9.3-1.2 0L168.4 207v26.4c0 .4-.3.8-.8.8-.4 0-.9-.3-.9-.8V207l-18.6 18.7c-.3.3-.8.3-1.1 0-.3-.3-.3-.9 0-1.1l18.6-18.7h-26.3c-.4 0-.8-.3-.8-.8 0-.4.3-.8.8-.8h26.3L147 185.6c-.3-.2-.3-.8 0-1.1.3-.3.8-.3 1.1 0l18.6 18.7v-26.4c0-.4.4-.8.9-.8.4 0 .8.3.8.8v26.4l18.6-18.7c.3-.3.9-.3 1.2 0 .2.3.2.9 0 1.1l-18.7 18.7h26.3z"/>
  <path fill-rule="evenodd" clip-rule="evenodd" fill="#30B2C1" d="M167.6 197.1c4.4 0 8 3.6 8 8 0 4.5-3.6 8-8 8-4.5 0-8.1-3.5-8.1-8 0-4.4 3.6-8 8.1-8zM54.9 175.4c16.5 0 29.8 13.3 29.8 29.7 0 16.5-13.3 29.8-29.8 29.8-16.4 0-29.7-13.3-29.7-29.8 0-16.4 13.4-29.7 29.7-29.7z"/>
  <path fill-rule="evenodd" clip-rule="evenodd" fill="#8FD4D6" d="M54.9 176.7c15.7 0 28.3 12.8 28.3 28.3 0 15.7-12.7 28.3-28.3 28.3-15.6 0-28.3-12.7-28.3-28.3 0-15.5 12.7-28.3 28.3-28.3z"/>
  <path fill-rule="evenodd" clip-rule="evenodd" fill="#24201F" d="M54.9 180.6c13.6 0 24.5 10.9 24.5 24.4 0 13.6-11 24.5-24.5 24.5-13.4 0-24.4-11-24.4-24.5s11-24.4 24.4-24.4z"/>
  <path fill-rule="evenodd" clip-rule="evenodd" fill="#FFF" d="M54.9 185.7c10.8 0 19.4 8.7 19.4 19.4 0 10.8-8.6 19.4-19.4 19.4-10.6 0-19.4-8.6-19.4-19.4 0-10.7 8.8-19.4 19.4-19.4z"/>
  <path fill-rule="evenodd" clip-rule="evenodd" fill="#8FD4D6" d="M54.9 191.7c7.4 0 13.4 5.9 13.4 13.3s-6 13.4-13.4 13.4-13.3-6-13.3-13.4c0-7.3 5.9-13.3 13.3-13.3z"/>
  <path fill="#2399AD" d="M83.3 204.3c.4 0 .8.3.8.8 0 .4-.3.8-.8.8H56.9l18.6 18.7c.3.2.3.8 0 1.1-.3.3-.8.3-1.1 0L55.8 207v26.4c0 .4-.4.8-.9.8-.4 0-.8-.3-.8-.8V207l-18.6 18.7c-.3.3-.9.3-1.2 0-.2-.3-.2-.9 0-1.1L53 205.8H26.7c-.4 0-.9-.3-.9-.8 0-.4.4-.8.9-.8H53l-18.7-18.7c-.2-.2-.2-.8 0-1.1.3-.3.9-.3 1.2 0l18.6 18.7v-26.4c0-.4.3-.8.8-.8.4 0 .9.3.9.8v26.4l18.6-18.7c.3-.3.8-.3 1.1 0 .3.3.3.9 0 1.1l-18.6 18.7h26.4z"/>
  <path fill-rule="evenodd" clip-rule="evenodd" fill="#30B2C1" d="M54.9 197.1c4.5 0 8.1 3.6 8.1 8 0 4.5-3.6 8-8.1 8-4.4 0-8-3.5-8-8 .1-4.4 3.6-8 8-8zM168.7 241c-3.5-2.5-8.3-3.6-13.3-2.2v.4c5.5 2.4 8.3 5.5 9 9.6.7 4.4 3.4 6.9 6.3 6.5 3-.4 4.1-3.4 3.2-7.2-.6-2.4-2.9-5.5-5.2-7.1zM54.5 241c3.4-2.5 8.3-3.6 13.3-2.2 0 .1 0 .3-.1.4-5.5 2.4-8.2 5.5-8.8 9.6-.7 4.4-3.4 6.9-6.3 6.5-3-.4-4.3-3.4-3.4-7.2.7-2.4 2.9-5.5 5.3-7.1zM48.8 261.9l.7-.7c.1.2.2.3.3.4 2.5 9 8 20.7 17.4 28.3 5 4.1 13.9 8.6 19.8 9.3 5.8.8 8.7 5.7 7.7 9.3-1.2 4.5-5.2 6.3-10.3 5.6-4.6-.6-9.4-4.6-15-10.5-9.3-10-15.6-24.2-20.6-41.7zM174.3 261.9c-.3-.2-.6-.4-.8-.7-.1.2-.1.3-.2.4-2.6 9-8.1 20.7-17.4 28.3-5 4.1-14 8.6-19.8 9.3-5.9.8-8.7 5.7-7.8 9.3 1.2 4.5 5.3 6.3 10.3 5.6 4.6-.6 9.5-4.6 15-10.5 9.4-10 15.6-24.2 20.6-41.7h.1z"/>
  <path fill-rule="evenodd" clip-rule="evenodd" fill="#FFF" d="M124.9 302c-3.2-5.1-7.6-9-13.4-11.4-5.8 2.4-10.3 6.3-13.4 11.4 7 5.2 11.4 13.3 13.4 22.4 2-9 6.4-17.2 13.4-22.4z"/>
  <path fill-rule="evenodd" clip-rule="evenodd" fill="#8FD4D6" d="M121.5 301.4c-2.4-3.9-5.7-6.7-10-8.6-4.4 1.9-7.7 4.7-10 8.6 5.2 3.9 8.5 10 10 16.8 1.5-6.8 4.8-12.9 10-16.8z"/>
  <path fill-rule="evenodd" clip-rule="evenodd" fill="#30B2C1" d="M117.2 301.9c-1.4-2.2-3.2-3.9-5.7-4.9-2.5 1.1-4.4 2.7-5.7 4.9 3 2.2 4.9 5.7 5.7 9.5.9-3.9 2.7-7.4 5.7-9.5z"/>
  <path fill="#30B2C1" d="M121.5 348.7c.1 1.6-.4 2.9-1.5 4s-2.4 1.8-3.9 1.8c-1.6.1-2.9-.4-4-1.5s-1.8-2.4-1.8-3.9c-.1-1.6.4-2.9 1.5-4 1-1.1 2.4-1.8 3.9-1.8 1.6-.1 2.9.3 4 1.5 1.1 1 1.6 2.3 1.8 3.9zm-19 .3c-.3 1.6-1.1 2.8-2.5 3.6-1.2.9-2.7 1.1-4.1.8-1.6-.3-2.7-1.1-3.6-2.5-.8-1.3-1.1-2.7-.8-4.3.3-1.5 1.2-2.7 2.5-3.6 1.3-.8 2.7-1 4.3-.7 1.6.3 2.7 1.1 3.6 2.5.7 1.3 1 2.8.6 4.2zm-19-5c-.8 1.3-1.9 2.2-3.5 2.6-1.5.3-2.9.1-4.1-.7-1.3-.8-2.2-1.9-2.6-3.5-.3-1.6-.1-2.9.7-4.3.8-1.3 1.9-2.1 3.5-2.6 1.5-.3 2.9-.1 4.3.7 1.3.8 2.1 2 2.5 3.5.3 1.6.1 2.9-.8 4.3zm-14.7-9.8c-1 1.1-2.4 1.8-3.9 1.9-1.5.2-2.9-.2-4-1.2-1.2-1-1.9-2.2-2-3.8s.3-2.9 1.3-4.1c1-1.2 2.2-1.8 3.8-2 1.6-.1 2.9.3 4 1.3 1.2 1 1.9 2.2 2 3.8.1 1.5-.3 2.9-1.2 4.1zm-13.2-13c-1.3 1-2.7 1.3-4.3 1.1-1.5-.2-2.7-.9-3.7-2.1-.9-1.2-1.2-2.7-1.1-4.1.2-1.6 1-2.8 2.2-3.8 1.2-.9 2.6-1.2 4.1-1 1.6.1 2.8.9 3.7 2.1 1 1.2 1.3 2.6 1.1 4.1-.1 1.6-.8 2.8-2 3.7zm-10.1-14c-1.3.9-2.7 1.1-4.3.7-1.5-.3-2.7-1.1-3.5-2.5-.8-1.3-1-2.7-.7-4.3.3-1.6 1.2-2.7 2.6-3.5 1.2-.8 2.7-1 4.3-.7 1.5.3 2.6 1.1 3.5 2.5.8 1.3 1 2.8.7 4.3-.5 1.6-1.3 2.7-2.6 3.5zm-9-15.2c-1.5.6-2.8.6-4.3 0s-2.5-1.6-3.1-2.9c-.6-1.5-.6-2.9 0-4.4.6-1.5 1.6-2.5 3-3 1.3-.7 2.8-.7 4.3-.1s2.5 1.6 3.1 3c.6 1.5.6 2.8 0 4.3-.5 1.4-1.5 2.4-3 3.1zm-6.7-15.5c-1.5.4-2.9.4-4.4-.2-1.3-.7-2.4-1.8-2.8-3.2-.6-1.5-.4-2.9.2-4.3.7-1.5 1.7-2.4 3.1-2.9 1.6-.6 2.9-.4 4.4.2 1.3.7 2.4 1.8 2.9 3.2.4 1.5.3 2.9-.3 4.3-.6 1.5-1.6 2.4-3.1 2.9zm-5.6-15.9c-1.5.4-2.9.2-4.3-.4-1.3-.8-2.2-1.9-2.7-3.4-.4-1.6-.3-2.9.4-4.4.8-1.3 1.9-2.2 3.4-2.6 1.6-.4 2.9-.3 4.4.4 1.3.8 2.2 1.9 2.6 3.4.4 1.5.3 2.9-.4 4.3-.8 1.4-1.9 2.3-3.4 2.7zm-4.5-16c-1.6.3-2.9.1-4.3-.8-1.3-.8-2.2-1.9-2.6-3.5-.3-1.5-.1-2.9.8-4.3.8-1.2 1.9-2.1 3.5-2.5 1.5-.3 2.9-.1 4.3.7 1.3.9 2.1 2 2.5 3.5.3 1.6.1 3-.7 4.3-.8 1.4-2 2.3-3.5 2.6zM16 228.1c-1.6.3-2.9 0-4.3-.9-1.2-.9-2-2.1-2.2-3.7-.3-1.5 0-2.9.9-4.1.9-1.2 2.1-2 3.7-2.4 1.6-.2 2.9.1 4.1 1 1.3.9 2.1 2.1 2.4 3.6.2 1.6-.1 3-1 4.3-.9 1.2-2.1 2-3.6 2.2zm-2.6-16.3c-1.6.1-2.9-.2-4.1-1.2-1.2-.9-2-2.1-2.1-3.7-.2-1.6.1-2.9 1.1-4.1 1-1.2 2.2-1.9 3.7-2.1 1.6-.2 2.9.2 4.1 1.1 1.2 1 2 2.2 2.2 3.8.1 1.5-.2 2.9-1.2 4.1-.9 1.2-2.2 1.9-3.7 2.1zm-2-16.7c-1.6.1-2.9-.3-4.1-1.3-1.1-1-1.8-2.2-1.9-3.8-.1-1.6.3-2.9 1.3-4.1 1.1-1.1 2.4-1.8 3.9-1.9 1.6-.1 2.9.3 4 1.3 1.2 1 1.9 2.4 1.9 3.9.1 1.5-.3 2.9-1.3 4s-2.2 1.8-3.8 1.9zm-1-16.7c-1.6 0-2.9-.4-4-1.6-1.1-1.1-1.7-2.4-1.7-3.9s.4-2.9 1.6-4c1.1-1.1 2.4-1.7 3.9-1.7 1.6 0 2.9.4 4 1.6 1.1 1 1.7 2.4 1.7 3.9.1 1.6-.4 2.9-1.6 4-.9 1.1-2.3 1.7-3.9 1.7zm-.1-16.7c-1.6 0-2.8-.6-3.9-1.7s-1.6-2.5-1.6-4c.1-1.6.7-2.9 1.8-3.9 1.1-1.1 2.5-1.6 4-1.6 1.6 0 2.9.7 3.9 1.8 1.1 1.1 1.6 2.5 1.6 4-.1 1.6-.7 2.8-1.8 3.9s-2.4 1.6-4 1.5zm.8-16.7c-1.6-.1-2.8-.8-3.8-2s-1.5-2.6-1.3-4c.1-1.6.8-2.9 2-3.9 1.1-1 2.6-1.3 4-1.2 1.6.1 2.9.8 3.9 1.9 1 1.2 1.3 2.6 1.2 4.1-.1 1.6-.8 2.8-2 3.8-1.1 1-2.4 1.4-4 1.3zm1.8-16.7c-1.6-.2-2.8-1-3.7-2.2-1-1.2-1.3-2.6-1.1-4.1.2-1.6 1-2.8 2.2-3.7 1.2-.9 2.6-1.2 4.1-1 1.6.2 2.8.9 3.7 2.1.9 1.2 1.3 2.7 1.1 4.1-.2 1.6-1 2.8-2.2 3.7-1.2 1-2.6 1.4-4.1 1.1zm2.7-16.6c-1.5-.3-2.7-1.1-3.5-2.4-.9-1.3-1.2-2.8-.9-4.3.3-1.6 1.1-2.7 2.5-3.6 1.2-.9 2.7-1.1 4.3-.8 1.5.3 2.7 1.1 3.5 2.4.9 1.3 1.2 2.7.9 4.3-.3 1.6-1.1 2.7-2.5 3.6-1.3.8-2.7 1.2-4.3.8zm4-16.4c-1.5-.4-2.6-1.3-3.4-2.7-.7-1.3-.9-2.8-.4-4.3.4-1.5 1.3-2.6 2.7-3.4 1.3-.8 2.8-.9 4.3-.6 1.5.4 2.6 1.3 3.4 2.7.8 1.3.9 2.8.6 4.3-.4 1.6-1.3 2.7-2.7 3.5-1.6.7-2.9.9-4.5.5zm5.4-17c-1.3-.7-2.4-1.7-2.9-3.1-.4-1.5-.4-2.9.2-4.4.7-1.3 1.7-2.4 3.1-2.9 1.5-.4 2.9-.4 4.4.2 1.3.7 2.4 1.7 2.9 3.1.6 1.5.4 2.9-.2 4.4-.7 1.3-1.7 2.4-3.1 2.9-1.5.4-2.9.4-4.4-.2zm7.4-15.6c-1.3-.8-2.2-1.9-2.7-3.5-.3-1.5-.1-2.9.7-4.3.8-1.3 1.9-2.1 3.4-2.6 1.6-.3 3-.1 4.4.7 1.2.8 2.1 1.9 2.6 3.4.3 1.6.1 2.9-.7 4.3-.8 1.3-1.9 2.2-3.4 2.6-1.6.4-3 .2-4.3-.6zm9.1-14.6c-1.2-1-2-2.2-2.2-3.7-.2-1.6.1-2.9 1-4.1.9-1.3 2.1-2 3.7-2.2 1.6-.2 2.9.1 4.3 1 1.2.9 1.9 2.1 2.1 3.7.3 1.5 0 2.9-1 4.1-.9 1.2-2.1 2-3.7 2.2-1.5.3-3-.1-4.2-1zm12.1-14.5c-.9-1.2-1.3-2.6-1.1-4.1.1-1.5.8-2.8 2-3.7 1.2-1 2.6-1.5 4.1-1.2 1.6.1 2.8.9 3.8 2 .9 1.2 1.3 2.6 1.1 4.1-.1 1.6-.8 2.8-2 3.8s-2.6 1.3-4.1 1.2c-1.6-.2-2.8-.9-3.8-2.1zM67.8 23c-.8-1.3-1-2.8-.7-4.3.4-1.6 1.3-2.7 2.6-3.5 1.3-.8 2.8-1 4.4-.6 1.5.3 2.6 1.2 3.4 2.6s1 2.7.7 4.3c-.4 1.5-1.3 2.7-2.6 3.5-1.3.8-2.8.9-4.4.6-1.5-.4-2.6-1.2-3.4-2.6zm17.5-8.3c-.3-1.5-.1-2.9.8-4.3.7-1.2 1.9-2 3.4-2.4 1.5-.3 2.9-.1 4.3.8 1.3.8 2.1 1.9 2.5 3.5.3 1.5.1 2.9-.7 4.3-.9 1.3-2 2.1-3.6 2.5-1.5.3-2.9.1-4.3-.7-1.2-1-2.1-2.1-2.4-3.7zm17.4-3.1c-.1-1.6.3-2.9 1.5-4.1 1-1.1 2.2-1.8 3.8-1.9 1.6-.1 2.9.3 4 1.3 1.2 1 1.8 2.4 1.9 3.9.1 1.5-.3 2.9-1.3 4-1 1.2-2.2 1.8-3.8 1.9-1.6.1-2.9-.3-4.1-1.3-1.2-1-1.8-2.3-2-3.8zm19.3-.2c.3-1.6 1.1-2.7 2.5-3.6 1.3-.8 2.7-1 4.3-.7 1.5.3 2.7 1.1 3.5 2.5.9 1.2 1.1 2.7.8 4.3-.3 1.5-1.2 2.7-2.5 3.5-1.3.9-2.8 1.1-4.3.8-1.6-.3-2.7-1.2-3.6-2.5-.8-1.4-1-2.9-.7-4.3zm17.3 4.1c.6-1.3 1.6-2.5 3-3 1.3-.7 2.8-.7 4.3-.1s2.5 1.6 3.1 3c.6 1.3.7 2.8.1 4.3-.7 1.5-1.6 2.5-3 3.1-1.5.6-2.9.7-4.3.1-1.5-.6-2.6-1.6-3.1-3-.7-1.5-.7-2.9-.1-4.4zm17.6 8.3c.9-1.2 2.2-1.9 3.7-2.1 1.6-.1 2.9.2 4.1 1.2 1.2 1 1.9 2.2 2.1 3.8.1 1.6-.2 2.9-1.2 4.1-1 1.1-2.2 1.9-3.8 2-1.6.2-2.9-.2-4.1-1.2-1.2-.9-1.9-2.1-2-3.7-.3-1.5.1-2.9 1.2-4.1zm13.3 11.3c1.1-1.1 2.5-1.6 4-1.6 1.6 0 2.8.6 3.9 1.7 1 1.1 1.6 2.5 1.6 4-.1 1.6-.7 2.9-1.8 3.9-1.1 1.1-2.5 1.7-3.9 1.6-1.6 0-2.9-.6-4-1.7-1-1.1-1.6-2.5-1.6-4 .1-1.5.7-2.8 1.8-3.9zm12.2 14.1c1.2-.8 2.7-1 4.3-.6 1.5.3 2.6 1.2 3.4 2.6.8 1.3 1 2.7.7 4.3-.4 1.5-1.3 2.6-2.7 3.4s-2.7 1-4.3.7c-1.5-.4-2.6-1.2-3.4-2.6-.8-1.3-1-2.8-.7-4.3.5-1.6 1.4-2.7 2.7-3.5zm8.6 14.9c1.3-.6 2.8-.7 4.3-.1s2.5 1.5 3.1 2.9c.7 1.5.7 2.8.2 4.3-.6 1.5-1.6 2.6-3 3.2-1.3.6-2.8.7-4.3.1s-2.5-1.6-3.1-2.9c-.7-1.5-.7-2.9-.2-4.4.6-1.4 1.6-2.4 3-3.1zm6.7 15.6c1.5-.6 2.9-.4 4.3.1 1.5.7 2.5 1.7 2.9 3.1.6 1.5.6 2.9-.1 4.4-.7 1.3-1.7 2.4-3.1 2.9-1.5.6-2.9.4-4.4-.1-1.3-.7-2.4-1.7-2.9-3.1-.6-1.5-.4-2.9.2-4.4.6-1.3 1.7-2.3 3.1-2.9zm5.4 16.3c1.5-.4 2.9-.2 4.3.4 1.3.8 2.2 1.9 2.6 3.4.4 1.6.3 3-.4 4.4-.8 1.3-1.9 2.2-3.5 2.6-1.5.4-2.9.2-4.3-.4-1.3-.8-2.2-1.9-2.6-3.5-.4-1.5-.3-2.9.4-4.3.8-1.4 2-2.3 3.5-2.6zm3.9 16.2c1.5-.3 2.9 0 4.3.8 1.2.9 2.1 2 2.5 3.5.3 1.6 0 3-.8 4.3-.9 1.3-2 2.1-3.6 2.5-1.6.3-2.9.1-4.3-.8-1.3-.8-2.1-2-2.5-3.5-.3-1.6 0-2.9.8-4.3 1-1.4 2.1-2.2 3.6-2.5zm3.2 17.2c1.5-.1 2.9.3 4 1.2 1.2 1 1.9 2.4 2 3.8.1 1.6-.3 2.9-1.3 4.1-1 1.2-2.2 1.9-3.8 2-1.6.1-2.9-.3-4-1.3-1.2-1-1.9-2.2-2-3.8s.2-2.9 1.2-4c1-1.2 2.3-1.8 3.9-2zm1.5 16.7c1.6 0 2.9.4 4 1.6 1.1 1 1.8 2.4 1.8 3.9s-.4 2.9-1.6 4c-1 1.1-2.4 1.7-3.9 1.7-1.6.1-2.9-.4-4-1.5s-1.7-2.4-1.7-3.9c-.1-1.6.4-2.9 1.5-4s2.5-1.6 3.9-1.8zm.7 16.7c1.6 0 2.8.6 3.9 1.7s1.7 2.5 1.6 4c0 1.5-.6 2.8-1.7 3.9s-2.5 1.6-4 1.6c-1.6 0-2.8-.6-3.9-1.7s-1.7-2.5-1.6-4c0-1.6.6-2.9 1.7-3.9 1.1-1.1 2.4-1.6 4-1.6zm-.1 16.7c1.5.1 2.8.8 3.8 1.9 1 1.2 1.5 2.6 1.3 4.1-.1 1.5-.8 2.8-1.9 3.8-1.2 1-2.6 1.5-4.1 1.3-1.5-.1-2.8-.7-3.8-1.9-1-1.1-1.5-2.5-1.3-4 .1-1.6.8-2.9 1.9-3.9 1.2-.9 2.5-1.4 4.1-1.3zm-1.1 16.7c1.6.2 2.8.9 3.7 2.1 1 1.2 1.3 2.6 1.2 4.1-.2 1.6-.9 2.8-2.1 3.8-1.2.9-2.7 1.3-4.1 1.1-1.6-.2-2.8-.9-3.8-2.1-.9-1.2-1.3-2.6-1.1-4.1.2-1.6.9-2.8 2.1-3.7 1.2-1 2.5-1.3 4.1-1.2zm-2 16.6c1.6.3 2.8 1.1 3.7 2.4.9 1.2 1.2 2.7.9 4.1-.2 1.6-1 2.8-2.2 3.7-1.3.9-2.7 1.2-4.3.9-1.6-.2-2.7-1-3.6-2.2-.9-1.3-1.2-2.7-1-4.3.3-1.6 1-2.7 2.4-3.6 1.2-.9 2.6-1.2 4.1-1zm-2.8 16.5c1.6.3 2.7 1.2 3.6 2.5.8 1.3 1 2.7.7 4.3-.3 1.5-1.1 2.7-2.5 3.5-1.3.9-2.7 1.1-4.3.8-1.5-.3-2.7-1.1-3.5-2.5-.9-1.3-1.1-2.7-.8-4.3.3-1.5 1.2-2.7 2.5-3.5 1.4-1 2.8-1.2 4.3-.8zm-3.7 16.3c1.6.4 2.7 1.3 3.5 2.7.7 1.3.9 2.8.4 4.3-.4 1.6-1.3 2.7-2.7 3.4-1.3.8-2.8 1-4.3.6s-2.7-1.3-3.4-2.7c-.8-1.3-1-2.8-.6-4.3.4-1.6 1.3-2.7 2.7-3.4 1.5-.8 2.9-.9 4.4-.6zm-4.7 16.3c1.6.4 2.6 1.5 3.2 2.8.7 1.5.8 2.8.2 4.3-.4 1.6-1.5 2.6-2.9 3.2-1.3.7-2.8.8-4.3.2-1.5-.6-2.6-1.5-3.2-2.9-.7-1.3-.7-2.8-.2-4.3.6-1.5 1.6-2.6 2.9-3.1 1.5-.7 2.8-.8 4.3-.2zm-5.9 15.8c1.5.6 2.5 1.7 3 3 .6 1.5.6 2.9 0 4.4-.7 1.5-1.7 2.4-3.1 3-1.5.6-2.9.6-4.3-.1-1.5-.6-2.5-1.7-3-3-.6-1.5-.6-2.9 0-4.4.7-1.5 1.7-2.5 3.1-3 1.5-.6 3-.6 4.3.1zm-6.9 15.3c1.3.7 2.4 1.8 2.8 3.2.4 1.5.3 2.9-.3 4.3-.7 1.5-1.8 2.4-3.2 2.8-1.5.4-2.9.3-4.4-.3-1.3-.7-2.2-1.8-2.7-3.2-.6-1.5-.4-2.9.2-4.3.8-1.5 1.9-2.4 3.4-2.8 1.4-.6 2.9-.5 4.2.3zm-8.7 15.8c1.2.9 2 2.1 2.2 3.7.2 1.6-.1 2.9-1.1 4.1-.9 1.2-2.1 2-3.7 2.2-1.6.2-2.9-.2-4.1-1.1-1.2-.9-2-2.1-2.2-3.7-.2-1.6.2-2.9 1.1-4.1.9-1.2 2.1-2 3.7-2.2 1.5-.2 2.8.2 4.1 1.1zm-10.6 13.7c1.2 1 1.8 2.4 1.8 3.9.1 1.6-.3 2.9-1.5 4-1 1.1-2.4 1.7-3.9 1.8-1.6 0-2.9-.4-4-1.6-1.1-1-1.7-2.4-1.8-3.9 0-1.6.4-2.9 1.5-4s2.5-1.7 3.9-1.8c1.6 0 2.9.4 4 1.6zm-13.5 13.3c.9 1.3 1.1 2.8.8 4.3-.4 1.6-1.2 2.7-2.6 3.5-1.3.9-2.7 1.1-4.3.7-1.6-.3-2.7-1.1-3.5-2.5-.8-1.3-1-2.8-.7-4.3.3-1.6 1.2-2.7 2.5-3.5 1.3-.9 2.8-1 4.3-.7 1.6.4 2.7 1.3 3.5 2.5zm-17.1 10c.3 1.5 0 2.9-.8 4.3-.9 1.2-2 2.1-3.6 2.5-1.5.3-2.9 0-4.1-.8-1.3-.9-2.2-2-2.5-3.6-.3-1.5-.1-2.9.7-4.3.9-1.2 2-2.1 3.6-2.5 1.5-.3 2.9 0 4.3.8 1.2.9 2.1 2 2.4 3.6z"/>
  <path fill-rule="evenodd" clip-rule="evenodd" fill="#FFF" d="M94.7 45c3.9 6.4 9.5 11.2 16.8 14.2 7.3-3 12.8-7.9 16.8-14.2-8.8-6.5-14.2-16.7-16.8-28.1-2.5 11.4-8 21.6-16.8 28.1z"/>
  <path fill-rule="evenodd" clip-rule="evenodd" fill="#8FD4D6" d="M99 45.7c3 4.8 7.1 8.4 12.5 10.8 5.5-2.3 9.6-5.9 12.5-10.8-6.5-4.8-10.7-12.5-12.5-21.1-1.9 8.6-6 16.2-12.5 21.1z"/>
  <path fill-rule="evenodd" clip-rule="evenodd" fill="#30B2C1" d="M104.3 45.1c1.7 2.8 4 4.8 7.2 6.2 3.1-1.3 5.5-3.4 7.2-6.2-3.8-2.7-6.1-7.1-7.2-11.9-1.1 4.9-3.4 9.3-7.2 11.9z"/>
  <path fill="#30B2C1" d="M140.4 224.5c-2.6-7.2-14.4-16.6-17.8-14.4-3.4 2.3-7.2 6.8-7.2 6.8s5.3-27.6 3.4-38.2c-1.5-8.2-5.4-19.6-7.1-24.3-.1-1.4-.1-2.2-.1-2.2l-.3.9-.3-.9s0 .8-.1 2.2c-1.7 4.7-5.7 16.1-7.1 24.3-1.9 10.6 3.4 38.2 3.4 38.2s-3.8-4.5-7.2-6.8c-3.4-2.3-15.1 7.2-17.8 14.4-2.5 6.7 22.8 4.5 29.1 3.6 6.3.9 31.5 3.1 29.1-3.6z"/>
  <g>
    <g fill="#30B2C1">
      <path d="M122.3 128.6c-2.7 0-2.7 4.2 0 4.2 2.8 0 2.8-4.2 0-4.2zM130.4 125.4c-2.7 0-2.7 4.2 0 4.2s2.7-4.2 0-4.2zM139.4 123.3c-.9-.5-1.8-.3-2.5.3-.8.7-.8 2.2 0 2.9.6.5 1.3.7 2 .5.9-.2 1.5-1.1 1.5-2 .1-.7-.3-1.3-1-1.7zM147.2 121.9c-1.2 0-2.2 1-2.2 2.2 0 1.2 1 2.2 2.2 2.2 1.2 0 2.2-1 2.2-2.2-.1-1.3-1.1-2.2-2.2-2.2zM155.3 122.4c-2.8 0-2.8 4.4 0 4.4 2.8-.1 2.8-4.4 0-4.4zM164.3 124.6c-2.7 0-2.7 4.2 0 4.2s2.7-4.2 0-4.2zM171.3 127.8c-2.8 0-2.8 4.4 0 4.4 2.9 0 2.9-4.4 0-4.4zM178.1 133.6c-2.8 0-2.8 4.3 0 4.3s2.8-4.3 0-4.3z"/>
    </g>
    <g fill="#30B2C1">
      <path d="M97.9 128.6c2.7 0 2.7 4.2 0 4.2s-2.7-4.2 0-4.2zM89.9 125.4c2.7 0 2.7 4.2 0 4.2s-2.7-4.2 0-4.2zM80.8 123.3c.9-.5 1.8-.3 2.5.3.8.7.8 2.2 0 2.9-.6.5-1.3.7-2 .5-.9-.2-1.5-1.1-1.5-2 0-.7.4-1.3 1-1.7zM73 121.9c1.2 0 2.2 1 2.2 2.2 0 1.2-1 2.2-2.2 2.2-1.2 0-2.2-1-2.2-2.2.1-1.3 1.1-2.2 2.2-2.2zM64.9 122.4c2.8 0 2.8 4.4 0 4.4-2.8-.1-2.8-4.4 0-4.4zM56 124.6c2.7 0 2.7 4.2 0 4.2s-2.7-4.2 0-4.2zM48.9 127.8c2.8 0 2.8 4.4 0 4.4s-2.8-4.4 0-4.4zM42.1 133.6c2.8 0 2.8 4.3 0 4.3s-2.8-4.3 0-4.3z"/>
    </g>
    <path fill="#30B2C1" d="M116.2 146.1s14.4-15.2 36.1-13.5c21.7 1.7 28.7 16.5 28.7 16.5s-16 22.2-34 19.2-31.2-20.5-31.2-20.5l.4-1.7z"/>
    <path fill="#24201F" d="M123.6 148.7s36.8 3.1 49.6-.5c12.8-3.6 0 0 0 0s-1.2 5.7-13.8 6.5c-12.6.7-31.8-2.4-32.9-2.9-1.1-.4-2.6-1.1-2.9-3.1"/>
    <g>
      <path fill="#30B2C1" d="M106.4 146.1S92 130.9 70.3 132.6c-21.7 1.7-28.7 16.5-28.7 16.5s15.9 22.3 33.9 19.3 31.2-20.5 31.2-20.5l-.3-1.8z"/>
      <path fill="#231F20" d="M98.9 148.7s-36.8 3.1-49.6-.5c-12.8-3.6 0 0 0 0s1.1 5.7 13.8 6.5c12.6.7 31.8-2.4 32.9-2.9 1.2-.4 2.6-1.1 2.9-3.1"/>
    </g>
  </g>
  <g fill="#FFF">
    <path d="M170.9 68.5c-8 .7-16.2 2.9-23.8 5.4-13.5 4.3-26.3 10.6-35.7 21.4-9.5-10.8-22.2-17-35.7-21.4-7.6-2.5-15.8-4.7-23.8-5.4-5.2-.5-10.5-1-15.7-1-.3.6-.7 1.3-1 1.9v.1c1.7-.1 3.5-.1 5.2 0 3.9.2 7.7.4 11.6.9 7.9 1 15.7 2.9 23.3 5.3 7 2.1 14 4.9 20.3 8.6 5.8 3.5 10.2 8 15.2 12.3.1.3.4.5.7.5.3 0 .6-.2.7-.5 5-4.3 9.5-8.9 15.2-12.3 6.2-3.8 13.3-6.5 20.3-8.6 7.6-2.3 15.4-4.3 23.3-5.3 3.8-.5 7.7-.7 11.6-.9 1.8-.1 3.6 0 5.4 0v-.1c-.3-.6-.7-1.3-1-1.9-5.5 0-10.8.5-16.1 1z"/>
    <path d="M52.8 65.6c7.4 1.1 14.9 2.8 22 5s13.7 5.2 20.3 8.8c2.7 1.5 5.4 3.1 8 4.9 2.4 1.6 5.7 3.7 7.6 6 0 .4.4.7.8.7s.8-.2.8-.7c1.9-2.3 5.2-4.4 7.6-6 2.6-1.7 5.2-3.4 8-4.9 6.5-3.6 13.2-6.5 20.3-8.8 7.1-2.2 14.7-3.9 22-5 3.8-.6 7.6-1.2 11.5-1.5 1.1-.1 2.2-.1 3.3-.2-.3-.6-.7-1.2-1-1.7-4.4.3-8.8 1-13.1 1.7-8.2 1.3-16.4 3.1-24.3 5.6-7.2 2.3-13.8 5.5-20.4 9.1-3.1 1.7-6.1 3.7-9 5.7-1.8 1.3-4.1 2.9-5.6 4.7-1.5-1.9-3.7-3.4-5.6-4.7-2.9-2-5.9-4-9-5.7-6.6-3.6-13.2-6.8-20.4-9.1-7.9-2.5-16.1-4.3-24.3-5.6-4.2-.7-8.6-1.4-12.9-1.6-.4.6-.7 1.2-1 1.7 1 0 2.1.1 3.1.1 3.6.2 7.5.9 11.3 1.5z"/>
    <path d="M52 60.5c7.9.8 15.9 2.2 23.5 4.5 6.8 2 13.3 4.2 19.6 7.5 2.8 1.5 5.5 3.2 8.1 5 1.7 1.2 3.5 2.5 5 3.9.3.3 1.9 1.4 2.3 2v.3c0 .5.4.8.8.7.4 0 .8-.2.8-.7v-.3c.5-.6 2-1.7 2.3-2 1.6-1.4 3.3-2.7 5-3.9 2.6-1.8 5.3-3.5 8.1-5 6.3-3.4 12.8-5.5 19.6-7.5 7.6-2.2 15.6-3.7 23.5-4.5 3.3-.3 6.6-.9 9.9-.9h1.4l-1.2-1.8c-4.3.3-8.5.9-12.7 1.3-8.5.9-16.8 2.9-25 5.4-6.8 2-13 4.8-19.2 8.2-2.8 1.5-5.6 3.5-8 5.5-1 .8-3.4 2.2-4.6 3.8-1.3-1.5-3.7-3-4.6-3.8-2.5-2-5.3-3.9-8-5.5-6.2-3.4-12.4-6.2-19.2-8.2-8.2-2.4-16.5-4.4-25-5.4-4.1-.5-8.3-1-12.5-1.3l-1.2 1.8h1.2c3.5 0 6.8.6 10.1.9z"/>
    <path d="M56 56.7c6.8.8 14.2 2 20.8 4 5.8 1.8 12.4 3.2 17.8 6.1 3 1.7 6.3 3.3 9.1 5.3 1.3.9 2.4 1.8 3.7 2.7.6.5 3.3 1.8 3.4 2.5 0 .3.3.4.6.4s.6-.1.6-.4c.1-.7 2.8-2 3.4-2.5 1.2-.9 2.4-1.8 3.7-2.7 2.8-2 6.1-3.7 9.1-5.3 5.4-2.9 11.9-4.3 17.8-6.1 6.6-2 14-3.2 20.8-4 2.5-.3 5-.5 7.5-.8 1.6-.2 3.3-.4 4.9-.4-.4-.6-.9-1.2-1.3-1.8-4.2.3-8.5 1-12.6 1.5-7.6 1.1-15.2 2.6-22.6 4.8-6.3 1.8-12.7 3.8-18.4 7.2-3.3 2-6.6 3.9-9.7 6.3-.8.6-2.5 1.5-3.3 2.5-.8-1-2.5-1.9-3.3-2.5-3.1-2.4-6.4-4.3-9.7-6.3-5.5-3.4-12-5.4-18.3-7.2-7.4-2.1-15-3.7-22.6-4.8-4-.6-8.2-1.2-12.4-1.5-.4.6-.9 1.2-1.3 1.8 1.6.1 3.2.2 4.8.4 2.4.3 5 .5 7.5.8z"/>
    <path d="M47.4 50.7c4.2.1 8.4.3 12.6 1 5.8 1 11.6 2 17.2 3.8 12 3.9 23.5 8.5 33.5 16.4.1.2.4.4.7.4.3 0 .6-.1.7-.4 10-7.9 21.5-12.4 33.5-16.4 5.6-1.8 11.4-2.8 17.2-3.8 4.2-.7 8.5-.9 12.8-1-.5-.6-1-1.2-1.6-1.8-3.4.2-6.9.6-10.3 1-6.3.8-12.5 2.2-18.5 4.1-11.6 3.6-24.9 8.1-33.8 16.8-8.9-8.7-22.2-13.2-33.8-16.8-6-1.9-12.3-3.3-18.5-4.1-3.3-.4-6.7-.9-10.1-1-.5.6-1.1 1.2-1.6 1.8z"/>
  </g>
  <g fill="#FFF">
    <path d="M113 117.5c.3-.4.3-1.1.2-1.6-.1-.1-.1-.3-.2-.4-.1-.1-.3-.5-.2-.2-.2-.3-.4-.5-.7-.6h-.1c-.2-.1-.5-.2-.8-.2-.5 0-.9.2-1.3.5l-.3.3c-.1.1-.1.2-.2.2l-.3.6c-.1.4-.1.7.1 1.1.1.3.3.6.5.8.2.2.5.3.8.4h.5c.8.1 1.5-.3 2-.9zM115.8 108.2c0-.1 0-.1 0 0-.3-.2-.6-.2-.9-.2-.5 0-.9.2-1.3.5l-.3.3c-.1.1-.1.2-.2.2l-.3.6c-.1.4-.1.7.1 1.1.1.3.3.6.5.8.2.2.5.3.8.4h.5c.7.1 1.4-.3 1.9-.9.3-.4.3-1.1.2-1.6-.1-.1-.1-.3-.2-.4-.1-.1-.3-.5-.2-.2-.1-.3-.3-.5-.6-.6zM120.6 102c-.3-.2-.6-.2-.9-.2-.5 0-.9.2-1.3.5l-.3.3c-.1.1-.1.2-.2.2l-.3.6c-.1.4-.1.7.1 1.1.1.3.3.6.5.8.2.2.5.3.8.4h.5c.7.1 1.4-.3 1.9-.9.3-.4.3-1.1.2-1.6-.1-.1-.1-.3-.2-.4-.1-.1-.3-.5-.2-.2-.1-.2-.3-.4-.6-.6zM127.3 99.2c.3-.4.3-1.1.2-1.6-.1-.1-.1-.3-.2-.4-.1-.1-.3-.5-.2-.2-.2-.3-.4-.5-.7-.6h-.1c-.2-.1-.5-.2-.8-.2-.5 0-.9.2-1.3.5l-.3.3c-.1.1-.1.2-.2.2l-.3.6c-.1.4-.1.7.1 1.1.1.3.3.6.5.8.2.2.5.3.8.4h.5c.8.1 1.6-.3 2-.9zM133.4 91.4c-.1 0-.1 0 0 0-.3-.2-.6-.2-.9-.2-.5 0-.9.2-1.3.5l-.3.3c-.1.1-.1.2-.2.2l-.3.6c-.1.4-.1.7.1 1.1.1.3.3.6.5.8.2.2.5.3.8.4h.5c.7.1 1.4-.3 1.9-.9.3-.4.3-1.1.2-1.6-.1-.1-.1-.3-.2-.4-.1-.1-.3-.5-.2-.2-.1-.2-.4-.4-.6-.6zM140.8 87.2c-.3-.2-.6-.2-.9-.2-.5 0-.9.2-1.3.5l-.3.3c-.1.1-.1.2-.1.2l-.3.6c-.1.4-.1.7.1 1.1.1.3.3.6.5.8.2.2.5.3.8.4h.5c.7.1 1.4-.3 1.9-.9.3-.4.3-1.1.2-1.6-.1-.1-.1-.3-.2-.4-.1-.1-.3-.5-.2-.2-.2-.2-.4-.4-.7-.6zM148.8 83.8s-.1 0 0 0c-.3-.2-.6-.2-.9-.2-.5 0-.9.2-1.3.5l-.3.3c-.1.1-.1.2-.2.2l-.3.6c-.1.4-.1.7.1 1.1.1.3.3.6.5.8.2.2.5.3.8.4h.5c.7.1 1.4-.3 1.9-.9.3-.4.3-1.1.2-1.6-.1-.1-.1-.3-.2-.4-.1-.1-.3-.5-.2-.2-.1-.2-.3-.4-.6-.6zM156.8 81.2s-.1-.1 0 0c-.3-.2-.6-.2-.9-.2-.5 0-.9.2-1.3.5l-.3.3c-.1.1-.1.2-.2.2l-.3.6c-.1.4-.1.7.1 1.1.1.3.3.6.5.8.2.2.5.3.8.4h.5c.7.1 1.4-.3 1.9-.9.3-.4.3-1.1.2-1.6-.1-.1-.1-.3-.2-.4-.1-.1-.3-.5-.2-.2-.1-.3-.3-.5-.6-.6zM165.2 79c-.1 0-.1 0 0 0-.3-.2-.6-.2-.9-.2-.5 0-.9.2-1.3.5l-.3.3c-.1.1-.1.2-.2.2l-.3.6c-.1.4-.1.7.1 1.1.1.3.3.6.5.8.2.2.5.3.8.4h.5c.7.1 1.4-.3 1.9-.9.3-.4.3-1.1.2-1.6 0-.1-.1-.3-.2-.4-.1-.1-.3-.5-.2-.2-.1-.2-.4-.4-.6-.6zM170.9 80.2c.1.3.3.6.5.8.2.2.5.3.8.4h.5c.7.1 1.4-.3 1.9-.9.3-.4.3-1.1.2-1.6-.1-.1-.1-.3-.2-.4-.1-.1-.3-.5-.2-.2-.2-.3-.4-.5-.7-.6h-.1c-.2-.1-.5-.2-.8-.2-.5 0-.9.2-1.3.5l-.3.3c-.1.1-.1.2-.2.2l-.3.6c0 .4.1.7.2 1.1zM182.2 76.5s-.1 0 0 0c-.3-.2-.6-.2-.9-.2-.5 0-.9.2-1.3.5l-.3.3c-.1.1-.1.2-.2.2l-.3.6c-.1.4-.1.7.1 1.1.1.3.3.6.5.8.2.2.5.3.8.4h.5c.7.1 1.4-.3 1.9-.9.3-.4.3-1.1.2-1.6 0-.1-.1-.3-.2-.4-.1-.1-.3-.5-.2-.2-.1-.2-.3-.4-.6-.6zM189.1 79.2c.2.2.5.3.8.4h1.1c-.3-1.4-.7-2.6-1.1-3.9-.3.1-.5.2-.7.4l-.3.3c-.1.1-.1.2-.2.2l-.3.6c-.1.4-.1.7.1 1.1.2.4.4.7.6.9zM105.8 109c-.1.1-.1.3-.2.4-.2.5-.1 1.2.2 1.6.4.6 1.1 1 1.9.9h.5c.3-.1.5-.2.8-.4.3-.2.4-.5.5-.8.1-.3.2-.7.1-1.1l-.3-.6c0-.1-.1-.2-.2-.2l-.3-.3c-.4-.3-.8-.5-1.3-.5-.3 0-.6.1-.8.2h-.1c-.3.1-.5.4-.7.6.2-.3-.1.1-.1.2zM101 102.8c-.1.1-.1.3-.2.4-.2.5-.2 1.2.2 1.6.4.6 1.1 1 1.9.9h.5c.3-.1.6-.2.8-.4.3-.2.4-.5.5-.8.1-.3.2-.7.1-1.1l-.3-.6c0-.1-.1-.2-.2-.2l-.3-.3c-.4-.3-.8-.5-1.3-.5-.3 0-.6.1-.8.2h-.1c-.3.1-.5.4-.7.6.2-.2-.1.2-.1.2zM97 100.1h.5c.3-.1.6-.2.8-.4.3-.2.4-.5.5-.8.1-.3.2-.7.1-1.1l-.3-.6c0-.1-.1-.2-.2-.2-.1-.1-.1-.2-.3-.3-.4-.3-.8-.5-1.3-.5-.3 0-.6.1-.8.2h-.1c-.3.1-.5.4-.7.6.2-.3-.1.1-.2.2s-.1.3-.2.4c-.2.5-.1 1.2.2 1.6.6.6 1.3 1 2 .9zM88.2 92.2c-.1.1-.1.3-.2.4-.2.5-.1 1.2.2 1.6.4.6 1.1 1 1.9.9h.5c.3-.1.6-.2.8-.4.3-.2.4-.5.5-.8.1-.3.2-.7.1-1.1l-.3-.6c0-.1-.1-.2-.1-.2l-.3-.3c-.4-.3-.8-.5-1.3-.5-.3 0-.6.1-.8.2h-.1c-.3.1-.5.4-.7.6.2-.2-.1.2-.2.2zM80.7 88.1c-.1.1-.1.3-.2.4-.2.5-.1 1.2.2 1.6.4.6 1.1 1 1.9.9h.5c.3-.1.5-.2.8-.4.3-.2.4-.5.5-.8.1-.3.2-.7.1-1.1l-.3-.6c0-.1-.1-.2-.2-.2l-.3-.3c-.3-.4-.7-.6-1.2-.6-.3 0-.6.1-.8.2h-.1c-.3.1-.5.4-.7.6.2-.2-.1.2-.2.3zM72.8 84.7c-.1.1-.1.3-.2.4-.2.5-.2 1.2.2 1.6.4.6 1.1 1 1.9.9h.5c.3-.1.5-.2.8-.4.3-.2.4-.5.5-.8.1-.3.2-.7.1-1.1l-.3-.6c0-.1-.1-.2-.2-.2l-.3-.3c-.4-.3-.8-.5-1.3-.5-.3 0-.6.1-.8.2h-.1c-.3.1-.5.4-.7.6.3-.3 0 .1-.1.2zM64.8 82c-.1.1-.1.3-.2.4-.2.5-.1 1.2.2 1.6.4.6 1.1 1 1.9.9h.5c.3-.1.5-.2.8-.4.3-.2.4-.5.5-.8.1-.3.2-.7.1-1.1l-.3-.6c0-.1-.1-.2-.2-.2l-.3-.3c-.4-.3-.8-.5-1.3-.5-.3 0-.6.1-.8.2h-.1c-.3.1-.5.4-.7.6.2-.3 0 .1-.1.2zM56.4 79.9c-.1.1-.1.3-.2.4-.2.5-.2 1.2.2 1.6.4.6 1.1 1 1.9.9h.5c.3-.1.6-.2.8-.4.3-.2.4-.5.5-.8.1-.3.2-.7.1-1.1l-.3-.6c0-.1-.1-.2-.2-.2-.1-.1-.1-.2-.3-.3-.4-.3-.8-.5-1.3-.5-.3 0-.6.1-.8.2h-.1c-.3.1-.5.4-.7.6.3-.3 0 .1-.1.2zM51.2 78.3l-.3-.3c-.4-.3-.8-.5-1.3-.5-.3 0-.6.1-.8.2h-.1c-.3.1-.5.4-.7.6.2-.3-.1.1-.2.2s-.1.3-.2.4c-.2.5-.1 1.2.2 1.6.4.6 1.1 1 1.9.9h.5c.3-.1.6-.2.8-.4.3-.2.4-.5.5-.8.1-.3.2-.7.1-1.1l-.3-.6c0-.1 0-.2-.1-.2zM41.2 80.3s.1 0 0 0h.5c.3-.1.5-.2.8-.4.3-.2.4-.5.5-.8.1-.3.2-.7.1-1.1l-.3-.6c0-.1-.1-.2-.2-.2l-.3-.3c-.4-.3-.8-.5-1.3-.5-.3 0-.6.1-.8.2h-.1c-.3.1-.5.4-.7.6.2-.3-.1.1-.2.2s-.1.3-.2.4c-.2.5-.1 1.2.2 1.6.6.6 1.3 1 2 .9zM32 79.7c.1 0 .1 0 0 0h.5c.3-.1.5-.2.8-.4.3-.2.4-.5.5-.8.1-.3.2-.7.1-1.1l-.3-.6c0-.1-.1-.2-.2-.2l-.3-.3c-.2-.2-.4-.3-.6-.4-.4 1.2-.7 2.5-1 3.9.2-.1.4-.1.5-.1z"/>
  </g>
  <path fill="#30B2C1" d="M120 247.9c-3.9 0-5.5 6.2-6.3 6.9-.9.7-2.1 1.2-2.1 1.2s-1.2-.5-2.1-1.2c-.9-.7-2.5-6.9-6.3-6.9-3.9 0-16.9 2.5-22.2 18 0 0 5.3.2 6.3.2 1.1 0 6.9-1.9 13.4-1.4s6.5 3.9 10.9 3.9 4.4-3.3 10.9-3.9c6.5-.5 12.3 1.4 13.4 1.4 1.1 0 6.3-.2 6.3-.2-5.3-15.5-18.4-18-22.2-18z"/>
  <path fill="#8FD4D6" d="M132.8 267.5c-2.1-.5-4.9-1.2-9.5-1.1-4.6.2-6 2.1-8.5 3.2s-3.3.9-3.3.9-.9.2-3.4-.9-3.9-3-8.5-3.2c-4.6-.2-7.4.5-9.5 1.1-2.1.5-6 .5-8.6.4 0 0 2.6 1.9 4.6 5.5 1.9 3.5 4.4 16.8 21 13.3h8.8c16.6 3.5 19-9.8 21-13.3 1.9-3.5 4.6-5.5 4.6-5.5-2.7.2-6.6.2-8.7-.4z"/>
  <path fill="#24201F" d="M93.9 223c-3.3.2-5.8 1.6-6.7 4.4 1.6.8 3.3 1.2 5.2 1.2 2.7 0 5.1-1 7-2.5-1.3-1.8-3-3.2-5.5-3.1zM120.9 224.6c2.1 2.4 5.2 3.9 8.6 3.8 1.2 0 2.3-.2 3.4-.5-2.2-5.2-9-7.2-12-3.3z"/>
  <path fill="#8FD4D6" d="M126.5 222.8c-1.1 0-2.1.8-2.4 1.8-1.9 6.1-6.9 10.5-13 10.5-6 .1-11.2-4.3-13.2-10.3-.3-1.1-1.3-1.8-2.4-1.8-1.7 0-2.9 1.7-2.4 3.3 2.6 8.5 9.7 14.6 18.1 14.5 8.4-.1 15.4-6.3 17.8-14.8.4-1.6-.8-3.3-2.5-3.2z"/>
</svg>
