<svg version="1" xmlns="http://www.w3.org/2000/svg" viewBox="0 0 689 361"><path fill-rule="evenodd" clip-rule="evenodd" fill="#24201F" d="M111 4c161 0 128 359 0 352C-16 363-49 4 111 4z"/><path fill-rule="evenodd" clip-rule="evenodd" fill="#FFF" d="M111 9c156 0 124 348 0 342C-12 357-44 9 111 9z"/><path fill-rule="evenodd" clip-rule="evenodd" fill="#24201F" d="M111 18c-15 0-30 4-43 13-44 30-54 105-51 154 2 34 9 70 24 100 10 22 27 47 51 54 6 2 12 3 19 3h1l18-3c25-7 41-32 52-54 14-30 22-66 23-100 3-49-6-124-51-154-13-9-27-13-43-13z"/><path fill-rule="evenodd" clip-rule="evenodd" fill="#FFF" d="M206 192v-2h-3l3-2v-9l-3 5c-5 5-12 4-15-2-5-7-1-18 6-22 3-2 7-2 11-1v-5c-4-1-8-1-11 1-10 4-12 12-12 18-1 6 1 14 7 17l6 2h11zm0-17v-9c-6-3-13 0-14 6 0 6 3 8 6 7s3-4 1-5c0 2-1 2-2 2v-4c1-3 4-3 6-1l3 4zM17 192v-2h3l-3-2v-9l2 5c6 5 12 4 16-2 4-7 0-18-6-22-4-2-8-2-12-1v-5c5-1 8-1 12 1 9 4 11 12 12 18 0 6-2 14-8 17l-6 2H17zm0-17v-9c5-3 12 0 13 6s-2 8-5 7-3-4-2-5c0 2 2 2 2 2 2-1 2-3 1-4-2-3-5-3-7-1l-2 4zM20 195v-1l1 1c2 9 6 21 14 29 5 5 13 10 18 11 6 1 8 6 7 10s-5 6-10 5c-4-1-8-5-13-12-8-10-13-25-17-43zM204 195l-1-1-1 1c-1 9-6 21-14 29-5 5-13 10-18 11-6 1-8 6-7 10s5 6 10 5c4-1 9-5 13-12 9-10 14-25 17-43h1zM133 313c-5-8-11-13-20-17-8 4-15 9-19 17 10 7 16 19 19 32 3-13 10-25 20-32z"/><path fill="#24201F" d="M122 349l-2 4-4 1c-2 1-3 0-4-1l-2-4 2-4 4-2 4 2 2 4zm-19 0l-3 4h-4l-4-2v-4l2-4 4-1 4 3 1 4zm-19-5l-4 3-4-1-3-4 1-4 4-2h4l2 4v4zm-15-10l-4 2-4-1-2-4 1-4a5 5 0 0 1 8-1l2 4-1 4zm-13-13l-5 1-3-2c-1-1-2-3-1-4l2-4 4-1 4 2 1 4-2 4zm-10-14l-5 1-3-3-1-4c0-2 1-3 3-3l4-1 3 2 1 5-2 3zm-9-15h-5l-3-3v-4l3-3h4c2 0 3 1 3 3l1 4-3 3zm-7-15l-5-1c-1 0-2-1-2-3v-4c0-2 1-3 3-3h4l3 3v5l-3 3zm-6-16l-4-1-3-3 1-5c0-1 1-2 3-2h4c2 1 3 2 3 4v4l-4 3zm-4-16l-5-1-2-4c-1-1 0-3 1-4l3-3 4 1c2 1 3 2 3 4l-1 4-3 3zm-4-17l-4-1-3-4 1-4 4-2 4 1 3 4-1 4-4 2zm-3-16l-4-1-2-4 1-4a6 6 0 0 1 10 3l-1 4-4 2zm-2-17a5 5 0 0 1-6-5l2-4 4-2 4 1 1 4c1 2 0 3-1 4l-4 2zm-1-17l-4-1-1-4 1-4 4-2 4 2 2 4c0 1 0 3-2 4l-4 1zm0-16l-4-2-1-4 2-4 4-2 4 2 1 4-2 4-4 2zm1-17l-4-2-1-4 2-4 4-1 4 2 1 4-2 4-4 1zm2-17l-4-2-1-4 2-4 4-1 4 2 1 5-2 3c-1 1-3 2-4 1zm3-16l-4-3-1-4c0-2 1-3 3-4h4l4 2v4l-2 4-4 1zm4-17l-4-2v-5l3-3 4-1 3 3 1 4-3 4h-4zm5-17l-3-3v-4l3-3h5l3 3v5l-4 2h-4zm7-15l-2-4v-4l4-3 4 1 3 3a6 6 0 0 1-4 7h-5zm10-15l-3-4 1-4 4-2 4 1 2 4c1 1 0 3-1 4l-3 2-4-1zm12-14c-1-2-2-3-1-4 0-2 0-3 2-4 1-1 2-2 4-1l3 2c1 1 2 2 1 4l-1 4-5 1-3-2zm14-11l-1-4c0-2 1-3 3-4h4c2 0 3 1 3 2l1 4-2 4-5 1-3-3zm17-8l1-5 4-2 4 1 2 3v5a6 6 0 0 1-8 1l-3-3zm18-3l1-4c1-2 2-2 4-2 2-1 3 0 4 1l2 4-1 4-4 2-4-2-2-3zm19-1l3-3 4-1c1 0 3 1 3 3l1 4-2 3c-2 1-3 2-5 1l-3-2-1-5zm17 5l3-3 5-1 3 3v5a6 6 0 0 1-7 3l-4-3v-4zm18 8l4-2 4 1a6 6 0 0 1 1 8l-4 2-4-1c-2-1-2-3-2-4-1-2 0-3 1-4zm13 11l4-1 4 1 2 4-2 4-4 2-4-2-2-4 2-4zm12 14h5l3 2 1 5-3 3-4 1-4-3v-4l2-4zm9 15h4c2 1 3 1 3 3l1 4-3 3h-5l-3-2v-5l3-3zm7 16h4c2 0 3 1 3 3v4l-3 3h-5l-3-3 1-4c0-2 1-3 3-3zm5 16h4c2 1 3 2 3 4v4l-4 3-4-1c-2 0-2-1-3-3l1-4c0-2 2-3 3-3zm4 16l4 1 3 4-1 4-4 2c-1 1-2 0-4-1-1 0-2-1-2-3v-4l4-3zm3 17l4 2 2 3-1 5-4 2-4-2-2-4 1-4 4-2zm2 17c1 0 3 0 4 2l1 4c1 2 0 2-1 4l-4 1-4-1-2-4 2-4 4-2zm0 17c2 0 3 0 4 2l2 4-2 3c-1 2-2 2-4 2l-4-2-1-4 1-4 4-1zm0 17l4 1c1 2 2 3 1 5l-1 3-5 2-3-2-2-4 2-4c1-1 3-2 4-1zm-1 16l4 2 1 4-2 4-4 1-4-2-1-4 2-4 4-1zm-2 17l4 2 1 4-2 4-5 1-3-2c-1-2-2-3-1-5l2-3 4-1zm-3 16l4 3 1 4-3 4h-4l-4-2v-4l2-4 4-1zm-3 17l3 2 1 5-3 3-4 1-4-3v-4l2-4h5zm-5 16c2 0 3 1 3 3v4c0 2-1 3-3 3h-4l-3-3v-4l3-3h4zm-6 16c2 0 3 1 3 3a6 6 0 0 1-3 7h-4l-3-3a6 6 0 0 1 3-7h4zm-7 15l3 3v4c-1 2-2 3-4 3h-4l-3-3a5 5 0 0 1 4-7h4zm-8 16l2 4-1 4-4 2-4-1-2-4c-1-2 0-3 1-4l3-2 5 1zm-11 14l2 3-2 4-4 2-4-1-1-4 1-4 4-2c2 0 3 0 4 2zm-14 13a5 5 0 0 1-1 8h-5l-3-2-1-4c0-2 1-3 3-4l4-1 3 3zm-17 10v4l-4 3-4-1-3-4 1-4 4-3 4 1 2 4z"/><path fill-rule="evenodd" clip-rule="evenodd" fill="#FFF" d="M97 46c4 7 10 11 17 14 7-3 13-8 17-14-9-6-14-17-17-28-2 11-8 22-17 28z"/><path fill="#FFF" d="M150 226c-4-8-18-19-22-16-5 2-9 8-9 8s6-31 4-43l-9-27v-3 1l-1-1v3l-9 27c-2 12 4 43 4 43l-8-8c-4-3-19 8-22 16s28 5 36 4c7 1 39 3 36-4z"/><g><path fill="#FFF" d="M119 137s17-17 42-15c24 2 32 19 32 19s-18 25-38 22c-21-4-36-24-36-24v-2z"/><path fill="#24201F" d="M128 140s42 4 57 0c14-4 0 0 0 0s-2 6-16 7c-15 1-37-3-38-3-1-1-3-1-3-4"/><g><path fill="#FFF" d="M108 137s-16-17-41-15-33 19-33 19 18 25 39 22c20-4 35-24 35-24v-2z"/><path fill="#231F20" d="M99 140s-42 4-56 0c-15-4 0 0 0 0s1 6 15 7c15 1 37-3 38-3 1-1 3-1 3-4"/></g></g><g fill="#FFF"><path d="M190 76l-7 3c-26 11-51 26-69 53-19-27-43-42-69-53l-12-4-1 1v1l-1 2 13 5c13 5 27 12 39 21 11 8 20 20 29 30 0 1 1 2 2 1l1-1c10-10 18-22 29-30a159 159 0 0 1 49-25c-2-1-3-2-3-4z"/><path d="M186 66l-5 2a194 194 0 0 0-57 36l-10 12c-3-5-8-8-11-12L85 90a201 201 0 0 0-49-26l-1 3-1 1 9 3a193 193 0 0 1 55 34c4 4 11 9 14 15l2 1 1-1a193 193 0 0 1 69-48l3-2-1-4z"/><path d="M179 55l-4 1a166 166 0 0 0-52 34c-2 2-7 5-9 9l-9-9-16-14a164 164 0 0 0-47-23l-1 3 3 1a166 166 0 0 1 54 31l9 10 5 5 1 2c1 0 2 0 2-2l4-5 10-10 16-12c11-8 23-13 36-18l-2-3z"/><path d="M172 46c-11 4-23 9-33 17l-19 15-6 6-7-6-19-15c-10-9-23-14-35-18l-1-1-2 4c10 4 22 7 31 14l18 13 7 6c1 1 6 5 6 7l2 1 1-1c0-2 5-6 7-7l7-6 17-13c9-6 19-10 28-13l-2-3z"/><path d="M164 37c-18 8-37 18-50 35-14-18-34-28-53-37l-2 1-2 2a178 178 0 0 1 57 37h1c16-16 33-26 52-35l-3-3z"/></g><path fill="#FFF" d="M124 249c-5 0-7 7-8 8l-2 1-3-1c-1-1-3-8-8-8s-22 3-29 20l9 1c1 0 8-3 17-2 8 0 8 4 13 4 6 0 6-4 14-4 9-1 16 1 17 1h8c-6-17-23-20-28-20z"/><path fill="#FFF" d="M141 271l-12-1c-6 0-8 2-11 4l-5 1-4-1c-3-2-5-4-11-4l-12 1-11 1s4 2 6 6c3 4 6 19 27 15h11c21 4 24-11 27-15 2-4 6-7 6-7h-11z"/><path fill="#24201F" d="M97 225c-3 0-6 1-6 4a11 11 0 0 0 12-1c-1-2-3-4-6-3zM124 226c3 2 6 4 9 4l3-1c-2-5-9-7-12-3z"/><path fill="#FFF" d="M130 226c-1 0-2 0-2 2-2 6-7 11-13 11s-12-4-14-11l-2-2c-2 0-3 2-3 4 3 9 10 16 19 16 8 0 15-7 17-17 1-2 0-3-2-3z"/><g><text transform="matrix(1.0272 0 0 1 242 195)"><tspan x="0" y="0" fill="#24201F" font-family="'Comfortaa'" font-size="136" letter-spacing="10">VŪDU</tspan><tspan x="17" y="91" fill="#24201F" font-family="'Comfortaa'" font-size="91" letter-spacing="18">baldai</tspan></text></g></svg>