<svg xmlns="http://www.w3.org/2000/svg" height="85" viewBox="0 0 216.7 352.1">
  <title>vudu logo</title>
  <path d="M111,4c161,0,128,359,0,352C-16,363-49,4,111,4Z" transform="translate(-3 -4)" fill="#de4d44"/>
  <path d="M111,9c156,0,124,348,0,342C-12,357-44,9,111,9Z" transform="translate(-3 -4)" fill="#fff"/>
  <path d="M111,18A74.9,74.9,0,0,0,68,31C24,61,14,136,17,185c2,34,9,70,24,100,10,22,27,47,51,54a58.2,58.2,0,0,0,19,3h1l18-3c25-7,41-32,52-54,14-30,22-66,23-100,3-49-6-124-51-154C141,22,127,18,111,18Z" transform="translate(-3 -4)" fill="#de4d44"/>
  <path d="M206,192v-2h-3l3-2v-9l-3,5c-5,5-12,4-15-2-5-7-1-18,6-22,3-2,7-2,11-1v-5c-4-1-8-1-11,1-10,4-12,12-12,18s1,14,7,17l6,2Zm0-17v-9c-6-3-13,0-14,6s3,8,6,7,3-4,1-5c0,2-1,2-2,2v-4c1-3,4-3,6-1ZM17,192v-2h3l-3-2v-9l2,5c6,5,12,4,16-2s0-18-6-22a16.7,16.7,0,0,0-12-1v-5c5-1,8-1,12,1,9,4,11,12,12,18s-2,14-8,17l-6,2Zm0-17v-9a8.8,8.8,0,0,1,13,6c1,6-2,8-5,7s-3-4-2-5a2,2,0,0,0,2,2c2-1,2-3,1-4-2-3-5-3-7-1Zm3,20v-1l1,1c2,9,6,21,14,29,5,5,13,10,18,11s8,6,7,10-5,6-10,5-8-5-13-12C29,228,24,213,20,195Zm184,0-1-1-1,1a52.4,52.4,0,0,1-14,29c-5,5-13,10-18,11s-8,6-7,10,5,6,10,5,9-5,13-12c9-10,14-25,17-43ZM133,313c-5-8-11-13-20-17-8,4-15,9-19,17,10,7,16,19,19,32C116,332,123,320,133,313Z" transform="translate(-3 -4)" fill="#fff"/>
  <path d="M122,349l-2,4-4,1c-2,1-3,0-4-1l-2-4,2-4,4-2,4,2Zm-19,0-3,4H96l-4-2v-4l2-4,4-1,4,3Zm-19-5-4,3-4-1-3-4,1-4,4-2h4l2,4ZM69,334l-4,2-4-1-2-4,1-4a5,5,0,0,1,6.8-1.9l1.2.9,2,4ZM56,321l-5,1-3-2c-1-1-2-3-1-4l2-4,4-1,4,2,1,4ZM46,307l-5,1-3-3-1-4a2.7,2.7,0,0,1,3-3l4-1,3,2,1,5Zm-9-15H32l-3-3v-4l3-3h4a2.7,2.7,0,0,1,3,3l1,4Zm-7-15-5-1c-1,0-2-1-2-3v-4a2.7,2.7,0,0,1,3-3h4l3,3v5Zm-6-16-4-1-3-3,1-5c0-1,1-2,3-2h4c2,1,3,2,3,4v4Zm-4-16-5-1-2-4c-1-1,0-3,1-4l3-3,4,1c2,1,3,2,3,4l-1,4Zm-4-17-4-1-3-4,1-4,4-2,4,1,3,4-1,4Zm-3-16-4-1-2-4,1-4a6,6,0,0,1,10,3l-1,4Zm-2-17a5,5,0,0,1-6-5l2-4,4-2,4,1,1,4c1,2,0,3-1,4Zm-1-17-4-1-1-4,1-4,4-2,4,2,2,4a4,4,0,0,1-2,4Zm0-16-4-2-1-4,2-4,4-2,4,2,1,4-2,4Zm1-17-4-2-1-4,2-4,4-1,4,2,1,4-2,4Zm2-17-4-2-1-4,2-4,4-1,4,2,1,5-2,3C16,128,14,129,13,128Zm3-16-4-3-1-4c0-2,1-3,3-4h4l4,2v4l-2,4Zm4-17-4-2V88l3-3,4-1,3,3,1,4-3,4Zm5-17-3-3V71l3-3h5l3,3v5l-4,2Zm7-15-2-4V55l4-3,4,1,3,3a6,6,0,0,1-4,7ZM42,48l-3-4,1-4,4-2,4,1,2,4c1,1,0,3-1,4l-3,2ZM54,34c-1-2-2-3-1-4s0-3,2-4,2-2,4-1l3,2c1,1,2,2,1,4l-1,4-5,1ZM68,23l-1-4c0-2,1-3,3-4h4c2,0,3,1,3,2l1,4-2,4-5,1Zm17-8,1-5,4-2,4,1,2,3v5a6,6,0,0,1-8,1Zm18-3,1-4c1-2,2-2,4-2s3,0,4,1l2,4-1,4-4,2-4-2Zm19-1,3-3,4-1a3.2,3.2,0,0,1,3,3l1,4-2,3c-2,1-3,2-5,1l-3-2Zm17,5,3-3,5-1,3,3v5a6,6,0,0,1-7,3l-4-3Zm18,8,4-2,4,1a6,6,0,0,1,1,8l-4,2-4-1a4,4,0,0,1-2-4C155,26,156,25,157,24Zm13,11,4-1,4,1,2,4-2,4-4,2-4-2-2-4Zm12,14h5l3,2,1,5-3,3-4,1-4-3V53Zm9,15h4c2,1,3,1,3,3l1,4-3,3h-5l-3-2V67Zm7,16h4a2.7,2.7,0,0,1,3,3v4l-3,3h-5l-3-3,1-4A2.7,2.7,0,0,1,198,80Zm5,16h4c2,1,3,2,3,4v4l-4,3-4-1c-2,0-2-1-3-3l1-4A3.2,3.2,0,0,1,203,96Zm4,16,4,1,3,4-1,4-4,2c-1,1-2,0-4-1s-2-1-2-3v-4Zm3,17,4,2,2,3-1,5-4,2-4-2-2-4,1-4Zm2,17a4,4,0,0,1,4,2l1,4c1,2,0,2-1,4l-4,1-4-1-2-4,2-4Zm0,17c2,0,3,0,4,2l2,4-2,3c-1,2-2,2-4,2l-4-2-1-4,1-4Zm0,17,4,1c1,2,2,3,1,5l-1,3-5,2-3-2-2-4,2-4C209,180,211,179,212,180Zm-1,16,4,2,1,4-2,4-4,1-4-2-1-4,2-4Zm-2,17,4,2,1,4-2,4-5,1-3-2c-1-2-2-3-1-5l2-3Zm-3,16,4,3,1,4-3,4h-4l-4-2v-4l2-4Zm-3,17,3,2,1,5-3,3-4,1-4-3v-4l2-4Zm-5,16a2.7,2.7,0,0,1,3,3v4a2.7,2.7,0,0,1-3,3h-4l-3-3v-4l3-3Zm-6,16a2.7,2.7,0,0,1,3,3,6,6,0,0,1-3,7h-4l-3-3a6,6,0,0,1,3-7Zm-7,15,3,3v4c-1,2-2,3-4,3h-4l-3-3a5,5,0,0,1,2.5-6.6l1.5-.4Zm-8,16,2,4-1,4-4,2-4-1-2-4c-1-2,0-3,1-4l3-2Zm-11,14,2,3-2,4-4,2-4-1-1-4,1-4,4-2C164,321,165,321,166,323Zm-14,13a5,5,0,0,1,.2,7.1l-1.2.9h-5l-3-2-1-4c0-2,1-3,3-4l4-1Zm-17,10v4l-4,3-4-1-3-4,1-4,4-3,4,1Z" transform="translate(-3 -4)" fill="#de4d44"/>
  <path d="M97,46c4,7,10,11,17,14a39.1,39.1,0,0,0,17-14c-9-6-14-17-17-28C112,29,106,40,97,46Z" transform="translate(-3 -4)" fill="#fff"/>
  <path d="M150,226c-4-8-18-19-22-16s-9,8-9,8,6-31,4-43l-9-27v-2l-1-1v3l-9,27c-2,12,4,43,4,43l-8-8c-4-3-19,8-22,16s28,5,36,4C121,231,153,233,150,226Z" transform="translate(-3 -4)" fill="#fff"/>
  <g>
    <path d="M119,137s17-17,42-15,32,19,32,19-18,25-38,22-36-24-36-24Z" transform="translate(-3 -4)" fill="#fff"/>
    <path d="M128,140s42,4,57,0h0s-2,6-16,7-37-3-38-3-3-1-3-4" transform="translate(-3 -4)" fill="#de4d44"/>
    <g>
      <path d="M108,137s-16-17-41-15-33,19-33,19,18,25,39,22,35-24,35-24Z" transform="translate(-3 -4)" fill="#fff"/>
      <path d="M99,140s-42,4-56,0h0s1,6,15,7,37-3,38-3,3-1,3-4" transform="translate(-3 -4)" fill="#de4d44"/>
    </g>
  </g>
  <g>
    <path d="M190,76l-7,3c-26,11-51,26-69,53C95,105,71,90,45,79L33,75l-1,1v1l-1,2,13,5c13,5,27,12,39,21s20,20,29,30c0,1,1,2,2,1l1-1c10-10,18-22,29-30a159,159,0,0,1,49-25C191,79,190,78,190,76Z" transform="translate(-3 -4)" fill="#fff"/>
    <path d="M186,66l-5,2a194,194,0,0,0-57,36l-10,12c-3-5-8-8-11-12L85,90A201,201,0,0,0,36,64l-1,3-1,1,9,3a193,193,0,0,1,55,34c4,4,11,9,14,15l2,1,1-1a193,193,0,0,1,69-48l3-2Z" transform="translate(-3 -4)" fill="#fff"/>
    <path d="M179,55l-4,1a166,166,0,0,0-52,34c-2,2-7,5-9,9l-9-9L89,76A164,164,0,0,0,42,53l-1,3,3,1A166,166,0,0,1,98,88l9,10,5,5,1,2c1,0,2,0,2-2l4-5,10-10,16-12c11-8,23-13,36-18Z" transform="translate(-3 -4)" fill="#fff"/>
    <path d="M172,46c-11,4-23,9-33,17L120,78l-6,6-7-6L88,63C78,54,65,49,53,45l-1-1-2,4c10,4,22,7,31,14L99,75l7,6c1,1,6,5,6,7l2,1,1-1c0-2,5-6,7-7l7-6,17-13c9-6,19-10,28-13Z" transform="translate(-3 -4)" fill="#fff"/>
    <path d="M164,37c-18,8-37,18-50,35C100,54,80,44,61,35l-2,1-2,2a178,178,0,0,1,57,37h1c16-16,33-26,52-35Z" transform="translate(-3 -4)" fill="#fff"/>
  </g>
  <path d="M124,249c-5,0-7,7-8,8l-2,1-3-1c-1-1-3-8-8-8s-22,3-29,20l9,1c1,0,8-3,17-2s8,4,13,4,6-4,14-4,16,1,17,1h8C146,252,129,249,124,249Z" transform="translate(-3 -4)" fill="#fff"/>
  <path d="M141,271l-12-1c-6,0-8,2-11,4l-5,1-4-1c-3-2-5-4-11-4l-12,1-11,1a14.9,14.9,0,0,1,6,6c3,4,6,19,27,15h11c21,4,24-11,27-15a23.1,23.1,0,0,1,6-7Z" transform="translate(-3 -4)" fill="#fff"/>
  <path d="M97,225c-3,0-6,1-6,4a11,11,0,0,0,12-1C102,226,100,224,97,225Zm27,1c3,2,6,4,9,4l3-1C134,224,127,222,124,226Z" transform="translate(-3 -4)" fill="#de4d44"/>
  <path d="M130,226c-1,0-2,0-2,2-2,6-7,11-13,11a14.7,14.7,0,0,1-14-11l-2-2c-2,0-3,2-3,4,3,9,10,16,19,16s15-7,17-17C133,227,132,226,130,226Z" transform="translate(-3 -4)" fill="#fff"/>
</svg>
